<?xml version="1.0" encoding="UTF-8"?>
<!DOCTYPE svg PUBLIC "-//W3C//DTD SVG 1.1//EN" "http://www.w3.org/Graphics/SVG/1.1/DTD/svg11.dtd">
<svg xmlns="http://www.w3.org/2000/svg" version="1.1" width="500px" height="500px" style="shape-rendering:geometricPrecision; text-rendering:geometricPrecision; image-rendering:optimizeQuality; fill-rule:evenodd; clip-rule:evenodd" xmlns:xlink="http://www.w3.org/1999/xlink">
<g><path style="opacity:0.992" fill="#343534" d="M 257.5,25.5 C 261.858,26.5065 266.191,27.6731 270.5,29C 272.324,29.66 273.657,30.8267 274.5,32.5C 274.443,33.609 274.11,34.609 273.5,35.5C 268.281,37.3057 262.947,38.8057 257.5,40C 256.944,40.3826 256.611,40.8826 256.5,41.5C 255.679,44.6414 255.179,47.9748 255,51.5C 253.538,53.4368 252.372,55.4368 251.5,57.5C 247.928,57.3147 244.928,55.9814 242.5,53.5C 244.811,50.5796 245.811,47.2463 245.5,43.5C 243.064,43.317 240.897,43.9837 239,45.5C 238.017,51.9732 240.184,57.4732 245.5,62C 246.448,62.4828 247.448,62.6495 248.5,62.5C 251.027,64.6054 253.36,66.9387 255.5,69.5C 255.5,69.8333 255.5,70.1667 255.5,70.5C 254.167,70.5 252.833,70.5 251.5,70.5C 248.237,69.5178 244.903,68.8511 241.5,68.5C 241.762,69.9778 241.429,71.3112 240.5,72.5C 238.587,71.627 236.753,70.627 235,69.5C 234.5,57.1712 234.333,44.8378 234.5,32.5C 234.67,29.796 236.003,28.1293 238.5,27.5C 239.496,27.4142 240.329,27.7476 241,28.5C 242.067,26.7174 243.567,26.2174 245.5,27C 243.099,27.805 243.266,28.6383 246,29.5C 246.903,28.2986 248.069,27.4652 249.5,27C 248.5,26.6667 247.5,26.3333 246.5,26C 250.152,25.5014 253.818,25.3347 257.5,25.5 Z"/></g>
<g><path style="opacity:1" fill="#525453" d="M 257.5,25.5 C 253.818,25.3347 250.152,25.5014 246.5,26C 247.5,26.3333 248.5,26.6667 249.5,27C 248.069,27.4652 246.903,28.2986 246,29.5C 243.266,28.6383 243.099,27.805 245.5,27C 243.567,26.2174 242.067,26.7174 241,28.5C 240.329,27.7476 239.496,27.4142 238.5,27.5C 240.148,26.0735 242.148,25.2401 244.5,25C 249.02,24.1864 253.354,24.353 257.5,25.5 Z"/></g>
<g><path style="opacity:1" fill="#1f1f1f" d="M 251.5,57.5 C 251.25,59.674 250.25,61.3406 248.5,62.5C 247.448,62.6495 246.448,62.4828 245.5,62C 240.184,57.4732 238.017,51.9732 239,45.5C 240.897,43.9837 243.064,43.317 245.5,43.5C 245.811,47.2463 244.811,50.5796 242.5,53.5C 244.928,55.9814 247.928,57.3147 251.5,57.5 Z"/></g>
<g><path style="opacity:1" fill="#9a9c9b" d="M 273.5,35.5 C 273.5,36.1667 273.5,36.8333 273.5,37.5C 270.671,39.9784 267.338,40.9784 263.5,40.5C 264.149,51.9742 262.815,63.3076 259.5,74.5C 258.07,74.4208 256.736,74.7542 255.5,75.5C 254.948,73.9974 254.948,72.3307 255.5,70.5C 255.5,70.1667 255.5,69.8333 255.5,69.5C 256.633,67.9448 257.299,66.1114 257.5,64C 256.585,56.5325 256.252,49.0325 256.5,41.5C 256.611,40.8826 256.944,40.3826 257.5,40C 262.947,38.8057 268.281,37.3057 273.5,35.5 Z"/></g>
<g><path style="opacity:1" fill="#7f8081" d="M 273.5,37.5 C 273.659,44.5959 272.992,51.5959 271.5,58.5C 272.167,59.5 272.833,60.5 273.5,61.5C 271.777,63.8676 271.11,66.5342 271.5,69.5C 272.5,69.5 273.5,69.5 274.5,69.5C 270.248,73.112 265.248,74.7787 259.5,74.5C 262.815,63.3076 264.149,51.9742 263.5,40.5C 267.338,40.9784 270.671,39.9784 273.5,37.5 Z"/></g>
<g><path style="opacity:0.943" fill="#6b6c6b" d="M 274.5,32.5 C 275.906,32.9731 276.573,33.9731 276.5,35.5C 276.092,46.9045 275.425,58.2379 274.5,69.5C 273.5,69.5 272.5,69.5 271.5,69.5C 271.11,66.5342 271.777,63.8676 273.5,61.5C 272.833,60.5 272.167,59.5 271.5,58.5C 272.992,51.5959 273.659,44.5959 273.5,37.5C 273.5,36.8333 273.5,36.1667 273.5,35.5C 274.11,34.609 274.443,33.609 274.5,32.5 Z"/></g>
<g><path style="opacity:1" fill="#515251" d="M 256.5,41.5 C 256.252,49.0325 256.585,56.5325 257.5,64C 257.299,66.1114 256.633,67.9448 255.5,69.5C 253.36,66.9387 251.027,64.6054 248.5,62.5C 250.25,61.3406 251.25,59.674 251.5,57.5C 252.372,55.4368 253.538,53.4368 255,51.5C 255.179,47.9748 255.679,44.6414 256.5,41.5 Z"/></g>
<g><path style="opacity:1" fill="#808080" d="M 234.5,32.5 C 234.333,44.8378 234.5,57.1712 235,69.5C 236.753,70.627 238.587,71.627 240.5,72.5C 241.429,71.3112 241.762,69.9778 241.5,68.5C 244.903,68.8511 248.237,69.5178 251.5,70.5C 251.5,71.8333 251.5,73.1667 251.5,74.5C 249.833,74.5 248.167,74.5 246.5,74.5C 245.167,74.5 243.833,74.5 242.5,74.5C 242.572,77.5525 243.572,80.2192 245.5,82.5C 241.516,81.0172 239.183,78.1838 238.5,74C 236.416,73.2217 234.583,72.055 233,70.5C 232.329,71.2524 231.496,71.5858 230.5,71.5C 231.122,70.3734 231.955,69.3734 233,68.5C 233.169,56.3263 233.669,44.3263 234.5,32.5 Z"/></g>
<g><path style="opacity:0.996" fill="#373838" d="M 245.5,82.5 C 247.787,86.0523 251.121,87.7189 255.5,87.5C 267.044,88.4972 274.211,83.4972 277,72.5C 278.356,71.6198 279.856,71.2865 281.5,71.5C 286.617,73.2259 291.617,75.2259 296.5,77.5C 297.881,79.2741 297.548,80.7741 295.5,82C 281.956,87.9418 268.623,94.1085 255.5,100.5C 254.833,100.5 254.5,100.833 254.5,101.5C 253.833,109.167 253.167,116.833 252.5,124.5C 240.677,118.917 228.677,113.917 216.5,109.5C 213.357,108.866 210.857,107.2 209,104.5C 208.333,97.1667 208.333,89.8333 209,82.5C 209.465,81.0692 210.299,79.9025 211.5,79C 217.855,76.487 224.188,73.987 230.5,71.5C 231.496,71.5858 232.329,71.2524 233,70.5C 234.583,72.055 236.416,73.2217 238.5,74C 239.183,78.1838 241.516,81.0172 245.5,82.5 Z"/></g>
<g><path style="opacity:1" fill="#c8c8c8" d="M 276.5,35.5 C 277.643,44.5035 277.643,53.6702 276.5,63C 276.631,65.7772 277.298,68.2772 278.5,70.5C 276.224,70.7565 275.057,72.0898 275,74.5C 272.978,76.5218 270.978,78.5218 269,80.5C 268,80.1667 267,79.8333 266,79.5C 264.2,80.3195 262.366,80.9862 260.5,81.5C 257.111,81.6321 253.777,81.7988 250.5,82C 247.059,80.6816 245.725,78.1816 246.5,74.5C 248.167,74.5 249.833,74.5 251.5,74.5C 251.5,73.1667 251.5,71.8333 251.5,70.5C 252.833,70.5 254.167,70.5 255.5,70.5C 254.948,72.3307 254.948,73.9974 255.5,75.5C 256.736,74.7542 258.07,74.4208 259.5,74.5C 265.248,74.7787 270.248,73.112 274.5,69.5C 275.425,58.2379 276.092,46.9045 276.5,35.5 Z"/></g>
<g><path style="opacity:1" fill="#9e9e9e" d="M 246.5,74.5 C 245.725,78.1816 247.059,80.6816 250.5,82C 253.777,81.7988 257.111,81.6321 260.5,81.5C 260.196,82.1499 259.863,82.8165 259.5,83.5C 254.616,84.9636 249.949,84.6303 245.5,82.5C 243.572,80.2192 242.572,77.5525 242.5,74.5C 243.833,74.5 245.167,74.5 246.5,74.5 Z"/></g>
<g><path style="opacity:1" fill="#787878" d="M 278.5,70.5 C 279.791,70.2627 280.791,70.596 281.5,71.5C 279.856,71.2865 278.356,71.6198 277,72.5C 274.211,83.4972 267.044,88.4972 255.5,87.5C 251.121,87.7189 247.787,86.0523 245.5,82.5C 249.949,84.6303 254.616,84.9636 259.5,83.5C 259.863,82.8165 260.196,82.1499 260.5,81.5C 262.366,80.9862 264.2,80.3195 266,79.5C 267,79.8333 268,80.1667 269,80.5C 270.978,78.5218 272.978,76.5218 275,74.5C 275.057,72.0898 276.224,70.7565 278.5,70.5 Z"/></g>
<g><path style="opacity:1" fill="#808182" d="M 296.5,77.5 C 298.371,77.8588 299.871,78.8588 301,80.5C 301.667,87.5 301.667,94.5 301,101.5C 299.756,105.922 296.923,108.256 292.5,108.5C 281.657,114.422 270.657,120.089 259.5,125.5C 257.773,122.262 256.773,118.595 256.5,114.5C 257.606,110.223 257.772,105.89 257,101.5C 256.617,100.944 256.117,100.611 255.5,100.5C 268.623,94.1085 281.956,87.9418 295.5,82C 297.548,80.7741 297.881,79.2741 296.5,77.5 Z"/></g>
<g><path style="opacity:1" fill="#696969" d="M 254.5,101.5 C 254.831,109.528 254.498,117.528 253.5,125.5C 252.893,125.376 252.56,125.043 252.5,124.5C 253.167,116.833 253.833,109.167 254.5,101.5 Z"/></g>
<g><path style="opacity:0.998" fill="#e4e4e4" d="M 292.5,108.5 C 289.931,150.206 288.597,191.873 288.5,233.5C 287.833,233.5 287.167,233.5 286.5,233.5C 277.262,235.069 268.262,238.569 259.5,244C 257.291,245.873 255.458,248.04 254,250.5C 253.667,249.833 253.333,249.167 253,248.5C 252.616,215.857 252.449,183.191 252.5,150.5C 252.386,147.622 253.052,144.956 254.5,142.5C 253.549,137.23 253.215,131.897 253.5,126.5C 255.735,126.795 257.735,126.461 259.5,125.5C 270.657,120.089 281.657,114.422 292.5,108.5 Z"/></g>
<g><path style="opacity:0.995" fill="#b9b9b9" d="M 255.5,100.5 C 256.117,100.611 256.617,100.944 257,101.5C 257.772,105.89 257.606,110.223 256.5,114.5C 256.773,118.595 257.773,122.262 259.5,125.5C 257.735,126.461 255.735,126.795 253.5,126.5C 253.215,131.897 253.549,137.23 254.5,142.5C 253.052,144.956 252.386,147.622 252.5,150.5C 252.449,183.191 252.616,215.857 253,248.5C 253.333,249.167 253.667,249.833 254,250.5C 255.458,248.04 257.291,245.873 259.5,244C 268.262,238.569 277.262,235.069 286.5,233.5C 284.903,238.923 281.236,242.089 275.5,243C 272.833,245 270.167,247 267.5,249C 261.648,250.098 256.648,252.598 252.5,256.5C 252.657,255.127 252.49,253.793 252,252.5C 249.284,251.314 246.951,249.647 245,247.5C 239.154,246.586 233.987,244.253 229.5,240.5C 228.833,240.833 228.167,241.167 227.5,241.5C 225.271,240.423 222.937,239.756 220.5,239.5C 220.5,236.833 220.5,234.167 220.5,231.5C 220.641,209.157 220.307,186.824 219.5,164.5C 219.5,163.833 219.5,163.167 219.5,162.5C 219.642,147.485 219.309,132.485 218.5,117.5C 218.868,114.467 218.202,111.8 216.5,109.5C 228.677,113.917 240.677,118.917 252.5,124.5C 252.56,125.043 252.893,125.376 253.5,125.5C 254.498,117.528 254.831,109.528 254.5,101.5C 254.5,100.833 254.833,100.5 255.5,100.5 Z"/></g>
<g><path style="opacity:0.357" fill="#e2e2e2" d="M 218.5,117.5 C 219.309,132.485 219.642,147.485 219.5,162.5C 218.669,150.167 218.002,137.667 217.5,125C 217.503,122.31 217.836,119.81 218.5,117.5 Z"/></g>
<g><path style="opacity:0.054" fill="#f2f2f2" d="M 219.5,164.5 C 220.307,186.824 220.641,209.157 220.5,231.5C 219.833,231.5 219.167,231.5 218.5,231.5C 219.239,209.065 219.572,186.731 219.5,164.5 Z"/></g>
<g><path style="opacity:0.094" fill="#cacaca" d="M 292.5,235.5 C 294.027,235.427 295.027,236.094 295.5,237.5C 293.973,237.573 292.973,236.906 292.5,235.5 Z"/></g>
<g><path style="opacity:1" fill="#323433" d="M 218.5,231.5 C 219.167,231.5 219.833,231.5 220.5,231.5C 220.5,234.167 220.5,236.833 220.5,239.5C 220.5,240.833 221.167,241.5 222.5,241.5C 223.29,242.794 224.29,243.961 225.5,245C 234.415,250.041 243.249,255.207 252,260.5C 252.782,264.056 251.282,265.889 247.5,266C 248.748,267.4 249.748,268.9 250.5,270.5C 250.167,270.5 249.833,270.5 249.5,270.5C 248.504,270.586 247.671,270.252 247,269.5C 246.415,271.129 245.581,272.629 244.5,274C 246.227,277.276 246.894,280.776 246.5,284.5C 245.167,284.5 243.833,284.5 242.5,284.5C 244.088,286.682 245.088,289.182 245.5,292C 245.213,294.174 244.88,296.341 244.5,298.5C 244.825,313.413 245.825,328.246 247.5,343C 247.204,344.888 246.704,346.722 246,348.5C 245.333,372.5 245.333,396.5 246,420.5C 246.692,421.025 247.192,421.692 247.5,422.5C 245.561,426.256 244.561,430.256 244.5,434.5C 244.932,443.565 245.765,452.565 247,461.5C 248.878,462.053 250.378,463.053 251.5,464.5C 251.573,466.027 250.906,467.027 249.5,467.5C 244.723,464.94 240.056,462.107 235.5,459C 230.985,455.991 228.318,451.824 227.5,446.5C 222.915,444.081 218.748,441.081 215,437.5C 212.853,432.6 210.853,427.6 209,422.5C 207.052,385.537 205.552,348.537 204.5,311.5C 204.337,309.143 204.503,306.81 205,304.5C 206.011,303.663 207.178,303.33 208.5,303.5C 208.046,300.86 206.879,298.527 205,296.5C 204.221,299.097 203.721,299.097 203.5,296.5C 203.04,283.837 202.707,271.171 202.5,258.5C 202.369,257.761 202.536,257.094 203,256.5C 204.133,258.211 205.633,258.711 207.5,258C 206.18,255.683 204.514,253.683 202.5,252C 203.451,248.943 203.784,245.777 203.5,242.5C 203.859,240.629 204.859,239.129 206.5,238C 210.394,235.554 214.394,233.388 218.5,231.5 Z"/></g>
<g><path style="opacity:1" fill="#818181" d="M 220.5,239.5 C 222.937,239.756 225.271,240.423 227.5,241.5C 228.167,241.167 228.833,240.833 229.5,240.5C 233.987,244.253 239.154,246.586 245,247.5C 246.951,249.647 249.284,251.314 252,252.5C 252.49,253.793 252.657,255.127 252.5,256.5C 243.058,250.446 233.058,245.446 222.5,241.5C 221.167,241.5 220.5,240.833 220.5,239.5 Z"/></g>
<g><path style="opacity:1" fill="#818181" d="M 286.5,233.5 C 287.167,233.5 287.833,233.5 288.5,233.5C 289.492,233.328 290.158,233.662 290.5,234.5C 289.178,234.33 288.011,234.663 287,235.5C 286.22,238.512 285.053,241.345 283.5,244C 275.051,249.464 266.385,254.464 257.5,259C 254.738,260.077 253.072,259.244 252.5,256.5C 256.648,252.598 261.648,250.098 267.5,249C 270.167,247 272.833,245 275.5,243C 281.236,242.089 284.903,238.923 286.5,233.5 Z"/></g>
<g><path style="opacity:1" fill="#a8aaa9" d="M 299.5,239.5 C 302.792,240.057 305.292,241.724 307,244.5C 308.029,250.123 308.529,255.79 308.5,261.5C 307.509,256.303 306.509,250.97 305.5,245.5C 293.393,253.096 281.393,260.929 269.5,269C 266.113,270.145 265.113,269.312 266.5,266.5C 267.707,265.811 269.041,265.645 270.5,266C 279.341,258.163 289.008,251.496 299.5,246C 300.5,245 301.5,244 302.5,243C 301.29,241.961 300.29,240.794 299.5,239.5 Z"/></g>
<g><path style="opacity:0.998" fill="#828384" d="M 308.5,261.5 C 309.803,273.961 309.803,286.295 308.5,298.5C 308.83,291.8 308.497,285.134 307.5,278.5C 294.995,287.496 282.328,296.329 269.5,305C 268.833,306 268.167,307 267.5,308C 267.902,314.666 268.236,321.5 268.5,328.5C 267.817,330.176 266.483,330.843 264.5,330.5C 265.014,318.692 265.014,307.025 264.5,295.5C 266.225,295.157 266.725,294.157 266,292.5C 265.29,291.027 264.124,290.36 262.5,290.5C 263.826,288.805 263.493,287.472 261.5,286.5C 262.338,286.158 262.672,285.492 262.5,284.5C 263.097,284.265 263.43,283.765 263.5,283C 260.775,278.617 261.109,274.617 264.5,271C 263.207,270.51 261.873,270.343 260.5,270.5C 262.463,269.18 264.463,267.846 266.5,266.5C 265.113,269.312 266.113,270.145 269.5,269C 281.393,260.929 293.393,253.096 305.5,245.5C 306.509,250.97 307.509,256.303 308.5,261.5 Z"/></g>
<g><path style="opacity:1" fill="#4b4c4c" d="M 290.5,234.5 C 291.492,234.328 292.158,234.662 292.5,235.5C 292.973,236.906 293.973,237.573 295.5,237.5C 297.153,237.66 298.486,238.326 299.5,239.5C 300.29,240.794 301.29,241.961 302.5,243C 301.5,244 300.5,245 299.5,246C 289.008,251.496 279.341,258.163 270.5,266C 269.041,265.645 267.707,265.811 266.5,266.5C 264.463,267.846 262.463,269.18 260.5,270.5C 259.662,270.842 259.328,271.508 259.5,272.5C 256.598,271.422 253.598,270.756 250.5,270.5C 249.748,268.9 248.748,267.4 247.5,266C 251.282,265.889 252.782,264.056 252,260.5C 243.249,255.207 234.415,250.041 225.5,245C 224.29,243.961 223.29,242.794 222.5,241.5C 233.058,245.446 243.058,250.446 252.5,256.5C 253.072,259.244 254.738,260.077 257.5,259C 266.385,254.464 275.051,249.464 283.5,244C 285.053,241.345 286.22,238.512 287,235.5C 288.011,234.663 289.178,234.33 290.5,234.5 Z"/></g>
<g><path style="opacity:0.404" fill="#8c8e8d" d="M 203.5,242.5 C 203.784,245.777 203.451,248.943 202.5,252C 204.514,253.683 206.18,255.683 207.5,258C 205.633,258.711 204.133,258.211 203,256.5C 202.536,257.094 202.369,257.761 202.5,258.5C 201.733,257.828 201.066,256.995 200.5,256C 201.706,251.442 202.706,246.942 203.5,242.5 Z"/></g>
<g><path style="opacity:1" fill="#abacac" d="M 260.5,270.5 C 261.873,270.343 263.207,270.51 264.5,271C 261.109,274.617 260.775,278.617 263.5,283C 263.43,283.765 263.097,284.265 262.5,284.5C 262.167,284.5 261.833,284.5 261.5,284.5C 259.746,280.742 259.079,276.742 259.5,272.5C 259.328,271.508 259.662,270.842 260.5,270.5 Z"/></g>
<g><path style="opacity:0.994" fill="#4d4d4d" d="M 308.5,298.5 C 308.117,315.356 307.117,332.023 305.5,348.5C 304.009,359.967 303.342,371.634 303.5,383.5C 303.442,398.909 302.608,414.242 301,429.5C 298.872,432.63 296.372,435.463 293.5,438C 285.274,445.069 276.94,451.902 268.5,458.5C 267.025,457.738 265.691,457.405 264.5,457.5C 265.32,439.877 265.82,422.21 266,404.5C 266.361,401.475 266.861,398.475 267.5,395.5C 266.726,390.628 266.393,385.794 266.5,381C 267.182,372.841 267.849,364.674 268.5,356.5C 267.929,351.446 267.095,346.446 266,341.5C 264.698,340.915 263.531,340.249 262.5,339.5C 263.833,338.833 264.833,337.833 265.5,336.5C 268.799,334.587 269.799,331.92 268.5,328.5C 268.236,321.5 267.902,314.666 267.5,308C 268.167,307 268.833,306 269.5,305C 282.328,296.329 294.995,287.496 307.5,278.5C 308.497,285.134 308.83,291.8 308.5,298.5 Z"/></g>
<g><path style="opacity:1" fill="#7f8180" d="M 258.5,285.5 C 258.196,286.15 257.863,286.817 257.5,287.5C 259.216,288.549 260.549,289.882 261.5,291.5C 261.44,292.043 261.107,292.376 260.5,292.5C 256.542,290.679 255.875,288.346 258.5,285.5 Z"/></g>
<g><path style="opacity:1" fill="#c2c4c2" d="M 258.5,285.5 C 259.391,286.11 260.391,286.443 261.5,286.5C 263.493,287.472 263.826,288.805 262.5,290.5C 261.833,290.5 261.5,290.833 261.5,291.5C 260.549,289.882 259.216,288.549 257.5,287.5C 257.863,286.817 258.196,286.15 258.5,285.5 Z"/></g>
<g><path style="opacity:1" fill="#2e302e" d="M 261.5,284.5 C 261.833,284.5 262.167,284.5 262.5,284.5C 262.672,285.492 262.338,286.158 261.5,286.5C 260.391,286.443 259.391,286.11 258.5,285.5C 255.875,288.346 256.542,290.679 260.5,292.5C 261.107,292.376 261.44,292.043 261.5,291.5C 261.5,290.833 261.833,290.5 262.5,290.5C 264.124,290.36 265.29,291.027 266,292.5C 266.725,294.157 266.225,295.157 264.5,295.5C 259.788,295.227 255.955,293.227 253,289.5C 252.257,287.559 252.424,285.726 253.5,284C 256.221,283.398 258.887,283.565 261.5,284.5 Z"/></g>
<g><path style="opacity:1" fill="#6e706f" d="M 249.5,270.5 C 249.833,270.5 250.167,270.5 250.5,270.5C 253.598,270.756 256.598,271.422 259.5,272.5C 259.079,276.742 259.746,280.742 261.5,284.5C 258.887,283.565 256.221,283.398 253.5,284C 252.424,285.726 252.257,287.559 253,289.5C 255.955,293.227 259.788,295.227 264.5,295.5C 265.014,307.025 265.014,318.692 264.5,330.5C 266.483,330.843 267.817,330.176 268.5,328.5C 269.799,331.92 268.799,334.587 265.5,336.5C 265.218,335.222 264.551,334.222 263.5,333.5C 263.923,330.757 262.756,329.424 260,329.5C 255.437,330.986 254.77,333.319 258,336.5C 258.278,335.584 258.778,334.918 259.5,334.5C 258.916,337.285 259.916,338.952 262.5,339.5C 263.531,340.249 264.698,340.915 266,341.5C 267.095,346.446 267.929,351.446 268.5,356.5C 267.849,364.674 267.182,372.841 266.5,381C 266.393,385.794 266.726,390.628 267.5,395.5C 266.861,398.475 266.361,401.475 266,404.5C 265.82,422.21 265.32,439.877 264.5,457.5C 265.691,457.405 267.025,457.738 268.5,458.5C 266.525,460.137 264.525,461.804 262.5,463.5C 261.861,467.196 260.861,470.863 259.5,474.5C 257.961,470.09 258.294,465.756 260.5,461.5C 260.333,461.167 260.167,460.833 260,460.5C 257.056,464.614 254.556,464.447 252.5,460C 252.833,459.167 253.167,458.333 253.5,457.5C 254.736,458.246 256.07,458.579 257.5,458.5C 258.5,458.5 259.5,458.5 260.5,458.5C 260.687,456.436 261.187,454.436 262,452.5C 262.667,439.167 262.667,425.833 262,412.5C 258.912,406.154 255.745,399.987 252.5,394C 254.602,391.753 253.936,389.92 250.5,388.5C 249.548,386.955 249.215,385.288 249.5,383.5C 249.549,375.752 248.882,368.085 247.5,360.5C 248.237,354.695 248.904,348.862 249.5,343C 249.167,341.333 248.833,339.667 248.5,338C 251.019,332.666 251.019,327.333 248.5,322C 249.23,312.677 249.896,303.344 250.5,294C 250.151,286.265 249.818,278.431 249.5,270.5 Z"/></g>
<g><path style="opacity:0.994" fill="#979797" d="M 203.5,296.5 C 203.721,299.097 204.221,299.097 205,296.5C 206.879,298.527 208.046,300.86 208.5,303.5C 207.178,303.33 206.011,303.663 205,304.5C 204.503,306.81 204.337,309.143 204.5,311.5C 203.675,307.501 203.008,303.335 202.5,299C 202.528,297.93 202.861,297.097 203.5,296.5 Z"/></g>
<g><path style="opacity:1" fill="#2c2e2d" d="M 263.5,333.5 C 261.901,333.232 260.568,333.566 259.5,334.5C 258.778,334.918 258.278,335.584 258,336.5C 254.77,333.319 255.437,330.986 260,329.5C 262.756,329.424 263.923,330.757 263.5,333.5 Z"/></g>
<g><path style="opacity:1" fill="#9fa1a0" d="M 263.5,333.5 C 264.551,334.222 265.218,335.222 265.5,336.5C 264.833,337.833 263.833,338.833 262.5,339.5C 259.916,338.952 258.916,337.285 259.5,334.5C 260.568,333.566 261.901,333.232 263.5,333.5 Z"/></g>
<g><path style="opacity:1" fill="#484a49" d="M 249.5,270.5 C 249.818,278.431 250.151,286.265 250.5,294C 249.896,303.344 249.23,312.677 248.5,322C 251.019,327.333 251.019,332.666 248.5,338C 248.833,339.667 249.167,341.333 249.5,343C 248.904,348.862 248.237,354.695 247.5,360.5C 248.882,368.085 249.549,375.752 249.5,383.5C 248.007,384.312 247.34,385.645 247.5,387.5C 248.096,393.685 248.763,399.852 249.5,406C 249.497,420.182 249.164,434.516 248.5,449C 248.667,450.5 248.833,452 249,453.5C 252.104,454.803 254.937,456.47 257.5,458.5C 256.07,458.579 254.736,458.246 253.5,457.5C 253.167,458.333 252.833,459.167 252.5,460C 254.556,464.447 257.056,464.614 260,460.5C 260.167,460.833 260.333,461.167 260.5,461.5C 258.294,465.756 257.961,470.09 259.5,474.5C 258.766,475.708 258.433,477.041 258.5,478.5C 258.167,478.5 257.833,478.5 257.5,478.5C 257.276,474.697 257.11,470.697 257,466.5C 255.605,465.185 254.605,465.519 254,467.5C 253.148,466.429 252.315,465.429 251.5,464.5C 250.378,463.053 248.878,462.053 247,461.5C 245.765,452.565 244.932,443.565 244.5,434.5C 244.561,430.256 245.561,426.256 247.5,422.5C 247.192,421.692 246.692,421.025 246,420.5C 245.333,396.5 245.333,372.5 246,348.5C 246.704,346.722 247.204,344.888 247.5,343C 245.825,328.246 244.825,313.413 244.5,298.5C 244.88,296.341 245.213,294.174 245.5,292C 245.088,289.182 244.088,286.682 242.5,284.5C 243.833,284.5 245.167,284.5 246.5,284.5C 246.894,280.776 246.227,277.276 244.5,274C 245.581,272.629 246.415,271.129 247,269.5C 247.671,270.252 248.504,270.586 249.5,270.5 Z"/></g>
<g><path style="opacity:0.122" fill="#c1c1c1" d="M 305.5,348.5 C 305.386,360.351 304.719,372.018 303.5,383.5C 303.342,371.634 304.009,359.967 305.5,348.5 Z"/></g>
<g><path style="opacity:1" fill="#5e605f" d="M 249.5,383.5 C 249.215,385.288 249.548,386.955 250.5,388.5C 253.936,389.92 254.602,391.753 252.5,394C 255.745,399.987 258.912,406.154 262,412.5C 262.667,425.833 262.667,439.167 262,452.5C 261.187,454.436 260.687,456.436 260.5,458.5C 259.5,458.5 258.5,458.5 257.5,458.5C 254.937,456.47 252.104,454.803 249,453.5C 248.833,452 248.667,450.5 248.5,449C 249.164,434.516 249.497,420.182 249.5,406C 248.763,399.852 248.096,393.685 247.5,387.5C 247.34,385.645 248.007,384.312 249.5,383.5 Z"/></g>
<g><path style="opacity:0.889" fill="#727272" d="M 251.5,464.5 C 252.315,465.429 253.148,466.429 254,467.5C 254.605,465.519 255.605,465.185 257,466.5C 257.11,470.697 257.276,474.697 257.5,478.5C 255.847,479.799 254.347,479.466 253,477.5C 253.038,473.6 251.871,470.267 249.5,467.5C 250.906,467.027 251.573,466.027 251.5,464.5 Z"/></g>
<g><path style="opacity:0.748" fill="#979797" d="M 262.5,463.5 C 262.665,466.85 262.498,470.183 262,473.5C 261.303,475.584 260.136,477.251 258.5,478.5C 258.433,477.041 258.766,475.708 259.5,474.5C 260.861,470.863 261.861,467.196 262.5,463.5 Z"/></g>
</svg>
