<?xml version="1.0" encoding="UTF-8"?>
<!DOCTYPE svg PUBLIC "-//W3C//DTD SVG 1.1//EN" "http://www.w3.org/Graphics/SVG/1.1/DTD/svg11.dtd">
<svg xmlns="http://www.w3.org/2000/svg" version="1.1" width="564px" height="516px" style="shape-rendering:geometricPrecision; text-rendering:geometricPrecision; image-rendering:optimizeQuality; fill-rule:evenodd; clip-rule:evenodd" xmlns:xlink="http://www.w3.org/1999/xlink">
<g><path style="opacity:1" fill="#fefefe" d="M -0.5,-0.5 C 187.5,-0.5 375.5,-0.5 563.5,-0.5C 563.5,171.5 563.5,343.5 563.5,515.5C 375.5,515.5 187.5,515.5 -0.5,515.5C -0.5,343.5 -0.5,171.5 -0.5,-0.5 Z"/></g>
<g><path style="opacity:1" fill="#363636" d="M 329.5,87.5 C 329.047,88.4584 328.381,89.2917 327.5,90C 313.956,95.9418 300.623,102.109 287.5,108.5C 286.833,108.5 286.5,108.833 286.5,109.5C 285.833,117.167 285.167,124.833 284.5,132.5C 272.247,126.871 259.913,121.537 247.5,116.5C 245.284,115.797 243.451,114.464 242,112.5C 241.333,104.833 241.333,97.1667 242,89.5C 249.546,85.9773 257.046,82.3106 264.5,78.5C 265.478,78.9767 266.311,79.6433 267,80.5C 268.731,89.5616 274.231,94.3949 283.5,95C 294.869,97.6034 303.036,93.7701 308,83.5C 308.202,81.7444 308.702,80.0777 309.5,78.5C 316.257,81.5498 322.923,84.5498 329.5,87.5 Z"/></g>
<g><path style="opacity:1" fill="#7e7f80" d="M 329.5,87.5 C 330.458,87.9528 331.292,88.6195 332,89.5C 332.667,95.8333 332.667,102.167 332,108.5C 330.634,112.363 328.134,115.029 324.5,116.5C 313.657,122.422 302.657,128.089 291.5,133.5C 289.773,130.262 288.773,126.595 288.5,122.5C 289.606,118.223 289.772,113.89 289,109.5C 288.617,108.944 288.117,108.611 287.5,108.5C 300.623,102.109 313.956,95.9418 327.5,90C 328.381,89.2917 329.047,88.4584 329.5,87.5 Z"/></g>
<g><path style="opacity:1" fill="#696969" d="M 286.5,109.5 C 286.831,117.528 286.498,125.528 285.5,133.5C 284.893,133.376 284.56,133.043 284.5,132.5C 285.167,124.833 285.833,117.167 286.5,109.5 Z"/></g>
<g><path style="opacity:1" fill="#e4e4e4" d="M 324.5,116.5 C 322.597,158.209 320.597,199.875 318.5,241.5C 310.601,243.178 302.601,246.011 294.5,250C 291,252.167 288.167,255 286,258.5C 285.722,257.584 285.222,256.918 284.5,256.5C 284.616,223.853 284.616,191.186 284.5,158.5C 284.386,155.622 285.052,152.956 286.5,150.5C 285.549,145.23 285.215,139.897 285.5,134.5C 287.735,134.795 289.735,134.461 291.5,133.5C 302.657,128.089 313.657,122.422 324.5,116.5 Z"/></g>
<g><path style="opacity:1" fill="#bababa" d="M 287.5,108.5 C 288.117,108.611 288.617,108.944 289,109.5C 289.772,113.89 289.606,118.223 288.5,122.5C 288.773,126.595 289.773,130.262 291.5,133.5C 289.735,134.461 287.735,134.795 285.5,134.5C 285.215,139.897 285.549,145.23 286.5,150.5C 285.052,152.956 284.386,155.622 284.5,158.5C 284.616,191.186 284.616,223.853 284.5,256.5C 274.42,251.137 263.754,247.137 252.5,244.5C 252.843,242.517 252.176,241.183 250.5,240.5C 251.813,228.891 252.479,217.058 252.5,205C 252.275,176.156 251.609,147.322 250.5,118.5C 249.261,118.058 248.261,117.391 247.5,116.5C 259.913,121.537 272.247,126.871 284.5,132.5C 284.56,133.043 284.893,133.376 285.5,133.5C 286.498,125.528 286.831,117.528 286.5,109.5C 286.5,108.833 286.833,108.5 287.5,108.5 Z"/></g>
<g><path style="opacity:1" fill="#c4c4c4" d="M 318.5,241.5 C 317.766,242.708 317.433,244.041 317.5,245.5C 311.053,248.561 305.053,252.395 299.5,257C 293.648,258.098 288.648,260.598 284.5,264.5C 284.5,263.167 284.5,261.833 284.5,260.5C 284.5,259.167 284.5,257.833 284.5,256.5C 285.222,256.918 285.722,257.584 286,258.5C 288.167,255 291,252.167 294.5,250C 302.601,246.011 310.601,243.178 318.5,241.5 Z"/></g>
<g><path style="opacity:1" fill="#313332" d="M 250.5,240.5 C 252.176,241.183 252.843,242.517 252.5,244.5C 252.5,245.5 252.5,246.5 252.5,247.5C 252.5,248.833 253.167,249.5 254.5,249.5C 255.29,250.794 256.29,251.961 257.5,253C 266.415,258.041 275.249,263.207 284,268.5C 284.782,272.056 283.282,273.889 279.5,274C 280.748,275.4 281.748,276.9 282.5,278.5C 282.167,278.5 281.833,278.5 281.5,278.5C 280.504,278.586 279.671,278.252 279,277.5C 278.415,279.129 277.581,280.629 276.5,282C 277.961,287.01 279.294,292.01 280.5,297C 279.27,299.822 279.27,302.655 280.5,305.5C 280.523,307.067 280.023,308.4 279,309.5C 278.22,323.186 278.387,336.853 279.5,350.5C 279.308,352.577 278.808,354.577 278,356.5C 277.333,380.5 277.333,404.5 278,428.5C 278.692,429.025 279.192,429.692 279.5,430.5C 277.561,434.256 276.561,438.256 276.5,442.5C 277.667,450.84 277.667,459.173 276.5,467.5C 275.549,468.326 274.549,468.492 273.5,468C 274.451,467.282 274.617,466.449 274,465.5C 272.644,466.38 271.144,466.714 269.5,466.5C 266.573,465.243 264.239,463.243 262.5,460.5C 263.01,457.612 262.344,455.279 260.5,453.5C 256.306,451.817 252.473,449.484 249,446.5C 245.73,440.103 243.064,433.436 241,426.5C 239.6,388.173 238.434,349.839 237.5,311.5C 238.5,311.5 239.5,311.5 240.5,311.5C 239.713,308.592 238.38,305.926 236.5,303.5C 236.392,290.444 235.725,277.444 234.5,264.5C 235.838,266.113 237.505,266.613 239.5,266C 237.942,263.948 236.608,261.781 235.5,259.5C 235.163,255.692 235.663,252.026 237,248.5C 241.115,245.192 245.615,242.525 250.5,240.5 Z"/></g>
<g><path style="opacity:1" fill="#a0a1a0" d="M 252.5,244.5 C 263.754,247.137 274.42,251.137 284.5,256.5C 284.5,257.833 284.5,259.167 284.5,260.5C 277.079,256.13 269.413,252.13 261.5,248.5C 260.833,248.833 260.167,249.167 259.5,249.5C 257.271,248.423 254.937,247.756 252.5,247.5C 252.5,246.5 252.5,245.5 252.5,244.5 Z"/></g>
<g><path style="opacity:1" fill="#808180" d="M 317.5,245.5 C 317.683,247.936 317.016,250.103 315.5,252C 307.051,257.464 298.385,262.464 289.5,267C 286.738,268.077 285.072,267.244 284.5,264.5C 288.648,260.598 293.648,258.098 299.5,257C 305.053,252.395 311.053,248.561 317.5,245.5 Z"/></g>
<g><path style="opacity:1" fill="#808181" d="M 252.5,247.5 C 254.937,247.756 257.271,248.423 259.5,249.5C 260.167,249.167 260.833,248.833 261.5,248.5C 269.413,252.13 277.079,256.13 284.5,260.5C 284.5,261.833 284.5,263.167 284.5,264.5C 275.058,258.446 265.058,253.446 254.5,249.5C 253.167,249.5 252.5,248.833 252.5,247.5 Z"/></g>
<g><path style="opacity:1" fill="#878988" d="M 235.5,259.5 C 236.608,261.781 237.942,263.948 239.5,266C 237.505,266.613 235.838,266.113 234.5,264.5C 234.216,262.585 234.549,260.919 235.5,259.5 Z"/></g>
<g><path style="opacity:1" fill="#a6a7a7" d="M 334.5,250.5 C 336.5,250.5 337.5,251.5 337.5,253.5C 325.41,261.07 313.41,268.903 301.5,277C 298.113,278.145 297.113,277.312 298.5,274.5C 299.707,273.811 301.041,273.645 302.5,274C 309.967,267.097 318.301,261.43 327.5,257C 330.288,255.281 332.621,253.115 334.5,250.5 Z"/></g>
<g><path style="opacity:1" fill="#818283" d="M 337.5,253.5 C 338.851,258.949 339.685,264.616 340,270.5C 340.827,283.007 340.66,295.34 339.5,307.5C 339.666,300.492 339.5,293.492 339,286.5C 326.801,295.69 314.301,304.523 301.5,313C 300.833,314 300.167,315 299.5,316C 299.902,322.666 300.236,329.5 300.5,336.5C 299.817,338.176 298.483,338.843 296.5,338.5C 297.014,326.692 297.014,315.025 296.5,303.5C 298.225,303.157 298.725,302.157 298,300.5C 297.29,299.027 296.124,298.36 294.5,298.5C 295.826,296.805 295.493,295.472 293.5,294.5C 294.338,294.158 294.672,293.492 294.5,292.5C 295.097,292.265 295.43,291.765 295.5,291C 292.775,286.617 293.109,282.617 296.5,279C 295.207,278.51 293.873,278.343 292.5,278.5C 294.463,277.18 296.463,275.846 298.5,274.5C 297.113,277.312 298.113,278.145 301.5,277C 313.41,268.903 325.41,261.07 337.5,253.5 Z"/></g>
<g><path style="opacity:1" fill="#4b4c4b" d="M 318.5,241.5 C 324.16,243.995 329.494,246.995 334.5,250.5C 332.621,253.115 330.288,255.281 327.5,257C 318.301,261.43 309.967,267.097 302.5,274C 301.041,273.645 299.707,273.811 298.5,274.5C 296.463,275.846 294.463,277.18 292.5,278.5C 291.662,278.842 291.328,279.508 291.5,280.5C 288.598,279.422 285.598,278.756 282.5,278.5C 281.748,276.9 280.748,275.4 279.5,274C 283.282,273.889 284.782,272.056 284,268.5C 275.249,263.207 266.415,258.041 257.5,253C 256.29,251.961 255.29,250.794 254.5,249.5C 265.058,253.446 275.058,258.446 284.5,264.5C 285.072,267.244 286.738,268.077 289.5,267C 298.385,262.464 307.051,257.464 315.5,252C 317.016,250.103 317.683,247.936 317.5,245.5C 317.433,244.041 317.766,242.708 318.5,241.5 Z"/></g>
<g><path style="opacity:1" fill="#abacac" d="M 292.5,278.5 C 293.873,278.343 295.207,278.51 296.5,279C 293.109,282.617 292.775,286.617 295.5,291C 295.43,291.765 295.097,292.265 294.5,292.5C 294.167,292.5 293.833,292.5 293.5,292.5C 291.746,288.742 291.079,284.742 291.5,280.5C 291.328,279.508 291.662,278.842 292.5,278.5 Z"/></g>
<g><path style="opacity:1" fill="#4c4c4c" d="M 339.5,307.5 C 339.74,313.227 339.407,318.894 338.5,324.5C 336.93,334.624 336.264,344.958 336.5,355.5C 335.214,381.824 334.047,408.157 333,434.5C 331.999,437.173 330.499,439.507 328.5,441.5C 320.685,448.148 313.018,454.981 305.5,462C 303.283,463.723 300.95,465.223 298.5,466.5C 297.338,448.671 297.171,430.671 298,412.5C 298.361,409.475 298.861,406.475 299.5,403.5C 298.726,398.628 298.393,393.794 298.5,389C 299.182,380.841 299.849,372.674 300.5,364.5C 299.929,359.446 299.095,354.446 298,349.5C 296.933,348.809 295.766,348.309 294.5,348C 298.186,345.816 300.52,342.649 301.5,338.5C 301.457,337.584 301.124,336.917 300.5,336.5C 300.236,329.5 299.902,322.666 299.5,316C 300.167,315 300.833,314 301.5,313C 314.301,304.523 326.801,295.69 339,286.5C 339.5,293.492 339.666,300.492 339.5,307.5 Z"/></g>
<g><path style="opacity:1" fill="#adaead" d="M 293.5,294.5 C 295.493,295.472 295.826,296.805 294.5,298.5C 293.849,299.091 293.182,299.757 292.5,300.5C 289.439,299.19 288.106,296.857 288.5,293.5C 290.216,293.629 291.883,293.962 293.5,294.5 Z"/></g>
<g><path style="opacity:1" fill="#2e302e" d="M 293.5,292.5 C 293.833,292.5 294.167,292.5 294.5,292.5C 294.672,293.492 294.338,294.158 293.5,294.5C 291.883,293.962 290.216,293.629 288.5,293.5C 288.106,296.857 289.439,299.19 292.5,300.5C 293.182,299.757 293.849,299.091 294.5,298.5C 296.124,298.36 297.29,299.027 298,300.5C 298.725,302.157 298.225,303.157 296.5,303.5C 291.788,303.227 287.955,301.227 285,297.5C 284.257,295.559 284.424,293.726 285.5,292C 288.221,291.398 290.887,291.565 293.5,292.5 Z"/></g>
<g><path style="opacity:1" fill="#6f7170" d="M 281.5,278.5 C 281.833,278.5 282.167,278.5 282.5,278.5C 285.598,278.756 288.598,279.422 291.5,280.5C 291.079,284.742 291.746,288.742 293.5,292.5C 290.887,291.565 288.221,291.398 285.5,292C 284.424,293.726 284.257,295.559 285,297.5C 287.955,301.227 291.788,303.227 296.5,303.5C 297.014,315.025 297.014,326.692 296.5,338.5C 298.483,338.843 299.817,338.176 300.5,336.5C 301.124,336.917 301.457,337.584 301.5,338.5C 300.52,342.649 298.186,345.816 294.5,348C 295.766,348.309 296.933,348.809 298,349.5C 299.095,354.446 299.929,359.446 300.5,364.5C 299.849,372.674 299.182,380.841 298.5,389C 298.393,393.794 298.726,398.628 299.5,403.5C 298.861,406.475 298.361,409.475 298,412.5C 297.171,430.671 297.338,448.671 298.5,466.5C 298.027,467.906 297.027,468.573 295.5,468.5C 294.749,467.427 293.749,467.26 292.5,468C 289.764,472.344 287.098,472.511 284.5,468.5C 284.281,467.325 284.614,466.325 285.5,465.5C 286.736,466.246 288.07,466.579 289.5,466.5C 290.5,466.5 291.5,466.5 292.5,466.5C 292.687,464.436 293.187,462.436 294,460.5C 294.667,447.167 294.667,433.833 294,420.5C 290.912,414.154 287.745,407.987 284.5,402C 286.602,399.753 285.936,397.92 282.5,396.5C 281.548,394.955 281.215,393.288 281.5,391.5C 281.549,383.752 280.882,376.085 279.5,368.5C 280.237,362.695 280.904,356.862 281.5,351C 281.167,349.333 280.833,347.667 280.5,346C 283.019,340.666 283.019,335.333 280.5,330C 281.23,320.677 281.896,311.344 282.5,302C 282.151,294.265 281.818,286.431 281.5,278.5 Z"/></g>
<g><path style="opacity:1" fill="#818181" d="M 236.5,303.5 C 238.38,305.926 239.713,308.592 240.5,311.5C 239.5,311.5 238.5,311.5 237.5,311.5C 235.408,308.966 235.074,306.299 236.5,303.5 Z"/></g>
<g><path style="opacity:1" fill="#737373" d="M 338.5,324.5 C 338.447,335.024 337.78,345.357 336.5,355.5C 336.264,344.958 336.93,334.624 338.5,324.5 Z"/></g>
<g><path style="opacity:1" fill="#2c2e2d" d="M 289.5,337.5 C 293.241,336.599 295.241,337.932 295.5,341.5C 292.762,340.965 290.928,341.965 290,344.5C 288.978,343.646 288.145,342.646 287.5,341.5C 288.63,340.378 289.297,339.044 289.5,337.5 Z"/></g>
<g><path style="opacity:1" fill="#5e605f" d="M 281.5,391.5 C 281.215,393.288 281.548,394.955 282.5,396.5C 285.936,397.92 286.602,399.753 284.5,402C 287.745,407.987 290.912,414.154 294,420.5C 294.667,433.833 294.667,447.167 294,460.5C 293.187,462.436 292.687,464.436 292.5,466.5C 291.5,466.5 290.5,466.5 289.5,466.5C 286.937,464.47 284.104,462.803 281,461.5C 280.833,460 280.667,458.5 280.5,457C 281.164,442.516 281.497,428.182 281.5,414C 280.763,407.852 280.096,401.685 279.5,395.5C 279.34,393.645 280.007,392.312 281.5,391.5 Z"/></g>
<g><path style="opacity:1" fill="#464848" d="M 281.5,278.5 C 281.818,286.431 282.151,294.265 282.5,302C 281.896,311.344 281.23,320.677 280.5,330C 283.019,335.333 283.019,340.666 280.5,346C 280.833,347.667 281.167,349.333 281.5,351C 280.904,356.862 280.237,362.695 279.5,368.5C 280.882,376.085 281.549,383.752 281.5,391.5C 280.007,392.312 279.34,393.645 279.5,395.5C 280.096,401.685 280.763,407.852 281.5,414C 281.497,428.182 281.164,442.516 280.5,457C 280.667,458.5 280.833,460 281,461.5C 284.104,462.803 286.937,464.47 289.5,466.5C 288.07,466.579 286.736,466.246 285.5,465.5C 284.614,466.325 284.281,467.325 284.5,468.5C 284.06,470.844 283.06,472.844 281.5,474.5C 277.148,472.327 273.148,469.66 269.5,466.5C 271.144,466.714 272.644,466.38 274,465.5C 274.617,466.449 274.451,467.282 273.5,468C 274.549,468.492 275.549,468.326 276.5,467.5C 277.667,459.173 277.667,450.84 276.5,442.5C 276.561,438.256 277.561,434.256 279.5,430.5C 279.192,429.692 278.692,429.025 278,428.5C 277.333,404.5 277.333,380.5 278,356.5C 278.808,354.577 279.308,352.577 279.5,350.5C 278.387,336.853 278.22,323.186 279,309.5C 280.023,308.4 280.523,307.067 280.5,305.5C 279.27,302.655 279.27,299.822 280.5,297C 279.294,292.01 277.961,287.01 276.5,282C 277.581,280.629 278.415,279.129 279,277.5C 279.671,278.252 280.504,278.586 281.5,278.5 Z"/></g>
<g><path style="opacity:1" fill="#767776" d="M 260.5,453.5 C 262.344,455.279 263.01,457.612 262.5,460.5C 261.732,458.285 261.065,455.952 260.5,453.5 Z"/></g>
<g><path style="opacity:1" fill="#5c5c5c" d="M 295.5,468.5 C 294.072,473.401 292.905,478.401 292,483.5C 290.556,485.155 288.722,485.822 286.5,485.5C 286.664,482.813 286.497,480.146 286,477.5C 284.122,476.947 282.622,475.947 281.5,474.5C 283.06,472.844 284.06,470.844 284.5,468.5C 287.098,472.511 289.764,472.344 292.5,468C 293.749,467.26 294.749,467.427 295.5,468.5 Z"/></g>
</svg>
