<?xml version="1.0" encoding="UTF-8"?>
<!DOCTYPE svg PUBLIC "-//W3C//DTD SVG 1.1//EN" "http://www.w3.org/Graphics/SVG/1.1/DTD/svg11.dtd">
<svg xmlns="http://www.w3.org/2000/svg" version="1.1" width="522px" height="478px" style="shape-rendering:geometricPrecision; text-rendering:geometricPrecision; image-rendering:optimizeQuality; fill-rule:evenodd; clip-rule:evenodd" xmlns:xlink="http://www.w3.org/1999/xlink">
<g><path style="opacity:0.027" fill="#e8e8e8" d="M 249.5,80.5 C 248.132,78.5819 247.132,76.4152 246.5,74C 244.803,73.6155 243.137,73.7822 241.5,74.5C 243.011,72.5589 245.011,72.0589 247.5,73C 248.554,75.3822 249.221,77.8822 249.5,80.5 Z"/></g>
<g><path style="opacity:0.761" fill="#b6b6b6" d="M 241.5,74.5 C 239.815,76.8176 237.481,77.8176 234.5,77.5C 236.426,75.7073 238.759,74.7073 241.5,74.5 Z"/></g>
<g><path style="opacity:1" fill="#353535" d="M 249.5,80.5 C 249.833,82.8333 251.167,84.1667 253.5,84.5C 254.492,84.3284 255.158,84.6618 255.5,85.5C 255.611,86.1174 255.944,86.6174 256.5,87C 263.167,89 269.833,89 276.5,87C 281.638,83.8809 284.638,79.3809 285.5,73.5C 292.167,75.8333 298.833,78.1667 305.5,80.5C 305.631,81.3764 305.298,82.0431 304.5,82.5C 291.29,88.2752 278.29,94.2752 265.5,100.5C 264.864,107.933 264.198,115.266 263.5,122.5C 252.27,117.44 240.937,112.607 229.5,108C 227.34,107.004 225.673,105.504 224.5,103.5C 224.203,96.0796 224.536,88.7463 225.5,81.5C 227.153,81.3404 228.486,80.6737 229.5,79.5C 231.553,79.5979 233.22,78.9313 234.5,77.5C 237.481,77.8176 239.815,76.8176 241.5,74.5C 243.137,73.7822 244.803,73.6155 246.5,74C 247.132,76.4152 248.132,78.5819 249.5,80.5 Z"/></g>
<g><path style="opacity:0.196" fill="#dadada" d="M 306.5,80.5 C 306.167,80.5 305.833,80.5 305.5,80.5C 298.833,78.1667 292.167,75.8333 285.5,73.5C 284.638,79.3809 281.638,83.8809 276.5,87C 269.833,89 263.167,89 256.5,87C 255.944,86.6174 255.611,86.1174 255.5,85.5C 262.905,88.2154 270.238,88.0488 277.5,85C 281.582,81.2585 284.415,76.7585 286,71.5C 292.967,74.4046 299.8,77.4046 306.5,80.5 Z"/></g>
<g><path style="opacity:0.204" fill="#d5d5d5" d="M 234.5,77.5 C 233.22,78.9313 231.553,79.5979 229.5,79.5C 230.78,78.0687 232.447,77.4021 234.5,77.5 Z"/></g>
<g><path style="opacity:0.525" fill="#b4b4b4" d="M 229.5,79.5 C 228.486,80.6737 227.153,81.3404 225.5,81.5C 226.287,79.8958 227.62,79.2291 229.5,79.5 Z"/></g>
<g><path style="opacity:0.42" fill="#d7d8d7" d="M 249.5,80.5 C 251.167,81.5 252.5,82.8333 253.5,84.5C 251.167,84.1667 249.833,82.8333 249.5,80.5 Z"/></g>
<g><path style="opacity:0.659" fill="#787878" d="M 225.5,81.5 C 224.536,88.7463 224.203,96.0796 224.5,103.5C 223.509,97.021 223.176,90.3543 223.5,83.5C 223.5,82.1667 224.167,81.5 225.5,81.5 Z"/></g>
<g><path style="opacity:1" fill="#7d7e7f" d="M 305.5,80.5 C 305.833,80.5 306.167,80.5 306.5,80.5C 307.798,88.1538 307.798,95.8204 306.5,103.5C 294.634,111.033 282.301,117.699 269.5,123.5C 268.833,120.5 268.167,117.5 267.5,114.5C 268.44,110.537 268.607,106.537 268,102.5C 267.583,101.244 266.75,100.577 265.5,100.5C 278.29,94.2752 291.29,88.2752 304.5,82.5C 305.298,82.0431 305.631,81.3764 305.5,80.5 Z"/></g>
<g><path style="opacity:0.096" fill="#ededed" d="M 306.5,80.5 C 307.117,80.6107 307.617,80.944 308,81.5C 308.667,88.1667 308.667,94.8333 308,101.5C 307.722,102.416 307.222,103.082 306.5,103.5C 307.798,95.8204 307.798,88.1538 306.5,80.5 Z"/></g>
<g><path style="opacity:1" fill="#9e9fa0" d="M 265.5,100.5 C 266.75,100.577 267.583,101.244 268,102.5C 268.607,106.537 268.44,110.537 267.5,114.5C 266.683,112.031 266.183,109.365 266,106.5C 265.83,112.196 265.33,117.862 264.5,123.5C 263.893,123.376 263.56,123.043 263.5,122.5C 264.198,115.266 264.864,107.933 265.5,100.5 Z"/></g>
<g><path style="opacity:0.988" fill="#e5e5e5" d="M 306.5,103.5 C 305.945,105.729 304.611,107.395 302.5,108.5C 301.337,115.792 300.504,123.126 300,130.5C 298.947,156.831 297.947,183.164 297,209.5C 295.383,214.176 295.217,218.843 296.5,223.5C 293.319,223.002 290.653,223.835 288.5,226C 282.516,227.989 276.516,229.989 270.5,232C 268.029,234.447 266.196,237.28 265,240.5C 264.768,239.263 264.268,238.263 263.5,237.5C 263.613,207.466 263.613,177.466 263.5,147.5C 263.618,144.629 264.284,141.962 265.5,139.5C 264.552,134.565 264.219,129.565 264.5,124.5C 266.415,124.784 268.081,124.451 269.5,123.5C 282.301,117.699 294.634,111.033 306.5,103.5 Z"/></g>
<g><path style="opacity:1" fill="#bababa" d="M 223.5,83.5 C 223.176,90.3543 223.509,97.021 224.5,103.5C 225.673,105.504 227.34,107.004 229.5,108C 240.937,112.607 252.27,117.44 263.5,122.5C 263.56,123.043 263.893,123.376 264.5,123.5C 265.33,117.862 265.83,112.196 266,106.5C 266.183,109.365 266.683,112.031 267.5,114.5C 268.167,117.5 268.833,120.5 269.5,123.5C 268.081,124.451 266.415,124.784 264.5,124.5C 264.219,129.565 264.552,134.565 265.5,139.5C 264.284,141.962 263.618,144.629 263.5,147.5C 263.613,177.466 263.613,207.466 263.5,237.5C 256.854,235.18 250.187,232.847 243.5,230.5C 240.671,228.022 237.338,227.022 233.5,227.5C 233.784,225.585 233.451,223.919 232.5,222.5C 233.776,217.915 234.443,213.082 234.5,208C 233.764,181.335 233.097,154.669 232.5,128C 232.496,121.462 231.83,115.295 230.5,109.5C 227.357,108.866 224.857,107.2 223,104.5C 222.179,97.3209 222.345,90.3209 223.5,83.5 Z"/></g>
<g><path style="opacity:0.18" fill="#f2f2f2" d="M 230.5,109.5 C 231.83,115.295 232.496,121.462 232.5,128C 233.097,154.669 233.764,181.335 234.5,208C 234.443,213.082 233.776,217.915 232.5,222.5C 230.95,223.441 229.284,224.107 227.5,224.5C 229.785,222.882 231.785,220.882 233.5,218.5C 232.101,182.11 231.101,145.776 230.5,109.5 Z"/></g>
<g><path style="opacity:0.549" fill="#b8bab9" d="M 225.5,225.5 C 225.027,226.906 224.027,227.573 222.5,227.5C 222.973,226.094 223.973,225.427 225.5,225.5 Z"/></g>
<g><path style="opacity:1" fill="#cacbca" d="M 296.5,223.5 C 298.674,223.75 300.341,224.75 301.5,226.5C 299.254,225.545 296.921,224.878 294.5,224.5C 293.662,224.842 293.328,225.508 293.5,226.5C 290.995,225.259 289.495,226.259 289,229.5C 288.586,229.043 288.086,228.709 287.5,228.5C 283.162,231.26 278.495,233.427 273.5,235C 270.441,238.187 268.107,241.687 266.5,245.5C 265.5,245.5 264.5,245.5 263.5,245.5C 263.5,244.167 263.5,242.833 263.5,241.5C 263.5,240.167 263.5,238.833 263.5,237.5C 264.268,238.263 264.768,239.263 265,240.5C 266.196,237.28 268.029,234.447 270.5,232C 276.516,229.989 282.516,227.989 288.5,226C 290.653,223.835 293.319,223.002 296.5,223.5 Z"/></g>
<g><path style="opacity:1" fill="#3b3d3c" d="M 294.5,224.5 C 296.921,224.878 299.254,225.545 301.5,226.5C 303.12,228.984 305.453,230.484 308.5,231C 309.252,231.671 309.586,232.504 309.5,233.5C 306.525,234.655 303.858,236.322 301.5,238.5C 298.167,237.167 295.833,234.833 294.5,231.5C 294.5,229.167 294.5,226.833 294.5,224.5 Z"/></g>
<g><path style="opacity:1" fill="#313231" d="M 232.5,222.5 C 233.451,223.919 233.784,225.585 233.5,227.5C 233.5,228.167 233.5,228.833 233.5,229.5C 242.379,237.192 252.212,243.526 263,248.5C 263.344,251.46 262.177,253.627 259.5,255C 260.308,255.308 260.975,255.808 261.5,256.5C 258.644,257.075 256.977,258.741 256.5,261.5C 257.327,264.783 257.66,268.116 257.5,271.5C 256.325,271.281 255.325,271.614 254.5,272.5C 257.612,276.062 258.278,280.062 256.5,284.5C 257.157,298.003 257.824,311.503 258.5,325C 257.594,328.456 256.927,331.956 256.5,335.5C 257.132,356.53 257.799,377.53 258.5,398.5C 256.503,410.069 256.003,421.736 257,433.5C 258.78,434.639 260.614,435.639 262.5,436.5C 262.715,438.179 262.048,439.179 260.5,439.5C 258.784,437.975 256.784,436.975 254.5,436.5C 253.738,434.738 252.404,433.738 250.5,433.5C 247.896,431.4 245.396,429.067 243,426.5C 242.998,423.949 242.164,421.949 240.5,420.5C 239.508,420.672 238.842,420.338 238.5,419.5C 237.738,417.738 236.404,416.738 234.5,416.5C 233.508,416.672 232.842,416.338 232.5,415.5C 230.313,411.065 227.98,406.732 225.5,402.5C 224.394,399.946 223.561,397.279 223,394.5C 222.83,385.324 222.33,376.324 221.5,367.5C 221.5,365.5 221.5,363.5 221.5,361.5C 221.333,347.495 221,333.495 220.5,319.5C 220.601,309.148 220.267,298.815 219.5,288.5C 220.5,288.5 221.5,288.5 222.5,288.5C 222.392,286.217 221.559,284.217 220,282.5C 219.828,276.319 219.328,270.319 218.5,264.5C 218.751,258.108 218.418,251.775 217.5,245.5C 218.738,246.412 220.072,246.579 221.5,246C 220.267,244.333 218.933,242.833 217.5,241.5C 217.5,241.167 217.5,240.833 217.5,240.5C 218.319,237.695 218.819,234.695 219,231.5C 220.376,230.295 221.542,228.962 222.5,227.5C 224.027,227.573 225.027,226.906 225.5,225.5C 225.842,224.662 226.508,224.328 227.5,224.5C 229.284,224.107 230.95,223.441 232.5,222.5 Z"/></g>
<g><path style="opacity:1" fill="#b2b2b2" d="M 293.5,226.5 C 287.041,232.183 279.707,236.683 271.5,240C 270.336,242.328 268.67,244.162 266.5,245.5C 268.107,241.687 270.441,238.187 273.5,235C 278.495,233.427 283.162,231.26 287.5,228.5C 288.086,228.709 288.586,229.043 289,229.5C 289.495,226.259 290.995,225.259 293.5,226.5 Z"/></g>
<g><path style="opacity:0.993" fill="#cccccc" d="M 301.5,226.5 C 307.048,227.681 311.214,230.681 314,235.5C 315.116,242.792 315.616,250.126 315.5,257.5C 315.167,257.5 314.833,257.5 314.5,257.5C 314.713,249.722 313.88,242.055 312,234.5C 311.292,235.381 310.458,236.047 309.5,236.5C 308.375,235.652 308.375,234.652 309.5,233.5C 309.586,232.504 309.252,231.671 308.5,231C 305.453,230.484 303.12,228.984 301.5,226.5 Z"/></g>
<g><path style="opacity:1" fill="#828282" d="M 294.5,224.5 C 294.5,226.833 294.5,229.167 294.5,231.5C 285.978,236.927 277.312,242.093 268.5,247C 266.326,247.877 264.659,247.377 263.5,245.5C 264.5,245.5 265.5,245.5 266.5,245.5C 268.67,244.162 270.336,242.328 271.5,240C 279.707,236.683 287.041,232.183 293.5,226.5C 293.328,225.508 293.662,224.842 294.5,224.5 Z"/></g>
<g><path style="opacity:1" fill="#a2a2a2" d="M 243.5,230.5 C 250.187,232.847 256.854,235.18 263.5,237.5C 263.5,238.833 263.5,240.167 263.5,241.5C 256.509,238.34 249.842,234.673 243.5,230.5 Z"/></g>
<g><path style="opacity:0.624" fill="#a0a0a0" d="M 222.5,227.5 C 221.542,228.962 220.376,230.295 219,231.5C 218.819,234.695 218.319,237.695 217.5,240.5C 217.5,238.167 217.5,235.833 217.5,233.5C 217.712,230.288 219.379,228.288 222.5,227.5 Z"/></g>
<g><path style="opacity:1" fill="#7f8080" d="M 233.5,227.5 C 237.338,227.022 240.671,228.022 243.5,230.5C 249.842,234.673 256.509,238.34 263.5,241.5C 263.5,242.833 263.5,244.167 263.5,245.5C 253.955,239.215 243.955,233.882 233.5,229.5C 233.5,228.833 233.5,228.167 233.5,227.5 Z"/></g>
<g><path style="opacity:1" fill="#808283" d="M 314.5,257.5 C 314.5,260.167 314.5,262.833 314.5,265.5C 303.088,273.055 291.755,280.888 280.5,289C 278.945,291.255 277.945,293.755 277.5,296.5C 277.323,301.641 277.156,306.974 277,312.5C 276.586,312.957 276.086,313.291 275.5,313.5C 274.764,302.818 274.098,292.151 273.5,281.5C 277.324,279.414 276.99,277.747 272.5,276.5C 273.826,274.805 273.493,273.472 271.5,272.5C 272.506,272.062 272.506,271.396 271.5,270.5C 272.586,270.38 273.253,269.713 273.5,268.5C 273.113,266.726 272.447,265.059 271.5,263.5C 272.167,261.833 272.833,260.167 273.5,258.5C 273.376,257.893 273.043,257.56 272.5,257.5C 273.262,255.738 274.596,254.738 276.5,254.5C 275.114,256.76 275.781,257.594 278.5,257C 288.932,250.131 299.265,243.298 309.5,236.5C 310.458,236.047 311.292,235.381 312,234.5C 313.88,242.055 314.713,249.722 314.5,257.5 Z"/></g>
<g><path style="opacity:1" fill="#a2a4a3" d="M 309.5,233.5 C 308.375,234.652 308.375,235.652 309.5,236.5C 299.265,243.298 288.932,250.131 278.5,257C 275.781,257.594 275.114,256.76 276.5,254.5C 284.62,248.934 292.953,243.6 301.5,238.5C 303.858,236.322 306.525,234.655 309.5,233.5 Z"/></g>
<g><path style="opacity:0.675" fill="#d8d9d8" d="M 217.5,233.5 C 217.5,235.833 217.5,238.167 217.5,240.5C 217.5,240.833 217.5,241.167 217.5,241.5C 217.5,242.833 217.5,244.167 217.5,245.5C 218.418,251.775 218.751,258.108 218.5,264.5C 218.822,270.358 218.489,276.025 217.5,281.5C 217.831,268.94 217.164,256.44 215.5,244C 215.972,240.323 216.638,236.823 217.5,233.5 Z"/></g>
<g><path style="opacity:1" fill="#878988" d="M 217.5,241.5 C 218.933,242.833 220.267,244.333 221.5,246C 220.072,246.579 218.738,246.412 217.5,245.5C 217.5,244.167 217.5,242.833 217.5,241.5 Z"/></g>
<g><path style="opacity:1" fill="#a6a7a7" d="M 272.5,257.5 C 273.043,257.56 273.376,257.893 273.5,258.5C 272.833,260.167 272.167,261.833 271.5,263.5C 272.447,265.059 273.113,266.726 273.5,268.5C 273.253,269.713 272.586,270.38 271.5,270.5C 270.833,270.5 270.5,270.167 270.5,269.5C 269.676,266.236 269.342,262.902 269.5,259.5C 269.821,257.952 270.821,257.285 272.5,257.5 Z"/></g>
<g><path style="opacity:1" fill="#4c4c4c" d="M 314.5,265.5 C 314.5,272.167 314.5,278.833 314.5,285.5C 313.402,291.979 312.735,298.646 312.5,305.5C 312.348,318.173 312.015,330.839 311.5,343.5C 309.817,362.979 308.65,382.646 308,402.5C 305.716,406.614 302.883,410.28 299.5,413.5C 297.251,414.08 295.585,415.413 294.5,417.5C 293.5,419.167 292.167,420.5 290.5,421.5C 287.573,422.757 285.239,424.757 283.5,427.5C 282.833,428.833 281.833,429.833 280.5,430.5C 278.716,430.893 277.05,431.559 275.5,432.5C 274.834,428.681 274.501,424.681 274.5,420.5C 275.551,394.84 276.385,369.174 277,343.5C 278.274,337.899 278.274,332.233 277,326.5C 275.86,324.721 274.693,323.054 273.5,321.5C 275.252,321.752 276.919,320.919 278.5,319C 278.781,311.615 278.447,304.115 277.5,296.5C 277.945,293.755 278.945,291.255 280.5,289C 291.755,280.888 303.088,273.055 314.5,265.5 Z"/></g>
<g><path style="opacity:1" fill="#4e4f4f" d="M 270.5,269.5 C 270.5,270.167 270.833,270.5 271.5,270.5C 272.506,271.396 272.506,272.062 271.5,272.5C 270.022,272.238 268.689,272.571 267.5,273.5C 269.216,274.549 270.549,275.882 271.5,277.5C 271.44,278.043 271.107,278.376 270.5,278.5C 267.453,277.125 266.12,274.792 266.5,271.5C 265.5,271.5 264.5,271.5 263.5,271.5C 263.611,270.883 263.944,270.383 264.5,270C 266.473,269.505 268.473,269.338 270.5,269.5 Z"/></g>
<g><path style="opacity:1" fill="#bdbfbe" d="M 271.5,272.5 C 273.493,273.472 273.826,274.805 272.5,276.5C 271.833,276.5 271.5,276.833 271.5,277.5C 270.549,275.882 269.216,274.549 267.5,273.5C 268.689,272.571 270.022,272.238 271.5,272.5 Z"/></g>
<g><path style="opacity:0.476" fill="#c7c7c7" d="M 314.5,257.5 C 314.833,257.5 315.167,257.5 315.5,257.5C 316.164,259.978 316.497,262.645 316.5,265.5C 316.082,275.34 315.416,285.007 314.5,294.5C 314.5,291.5 314.5,288.5 314.5,285.5C 314.5,278.833 314.5,272.167 314.5,265.5C 314.5,262.833 314.5,260.167 314.5,257.5 Z"/></g>
<g><path style="opacity:1" fill="#6e706f" d="M 269.5,259.5 C 269.342,262.902 269.676,266.236 270.5,269.5C 268.473,269.338 266.473,269.505 264.5,270C 263.944,270.383 263.611,270.883 263.5,271.5C 263.34,273.199 263.506,274.866 264,276.5C 266.826,278.829 269.992,280.496 273.5,281.5C 274.098,292.151 274.764,302.818 275.5,313.5C 276.086,313.291 276.586,312.957 277,312.5C 277.156,306.974 277.323,301.641 277.5,296.5C 278.447,304.115 278.781,311.615 278.5,319C 276.919,320.919 275.252,321.752 273.5,321.5C 274.693,323.054 275.86,324.721 277,326.5C 278.274,332.233 278.274,337.899 277,343.5C 276.385,369.174 275.551,394.84 274.5,420.5C 274.501,424.681 274.834,428.681 275.5,432.5C 275.5,432.833 275.5,433.167 275.5,433.5C 274.833,434.833 273.833,435.833 272.5,436.5C 271.681,439.305 271.181,442.305 271,445.5C 270.623,446.942 269.79,447.942 268.5,448.5C 268.234,444.395 268.734,440.395 270,436.5C 271.487,435.845 272.653,434.845 273.5,433.5C 272.063,431.979 271.396,430.145 271.5,428C 272.432,416.54 272.765,405.207 272.5,394C 272.385,391.958 272.051,389.958 271.5,388C 268.992,382.684 266.326,377.518 263.5,372.5C 265.274,369.15 264.274,367.484 260.5,367.5C 260.5,365.833 260.5,364.167 260.5,362.5C 261.514,327.861 261.514,293.195 260.5,258.5C 263.57,258.368 266.57,258.701 269.5,259.5 Z"/></g>
<g><path style="opacity:1" fill="#2d2f2d" d="M 263.5,271.5 C 264.5,271.5 265.5,271.5 266.5,271.5C 266.12,274.792 267.453,277.125 270.5,278.5C 271.107,278.376 271.44,278.043 271.5,277.5C 271.5,276.833 271.833,276.5 272.5,276.5C 276.99,277.747 277.324,279.414 273.5,281.5C 269.992,280.496 266.826,278.829 264,276.5C 263.506,274.866 263.34,273.199 263.5,271.5 Z"/></g>
<g><path style="opacity:0.994" fill="#828383" d="M 218.5,264.5 C 219.328,270.319 219.828,276.319 220,282.5C 221.559,284.217 222.392,286.217 222.5,288.5C 221.5,288.5 220.5,288.5 219.5,288.5C 219.068,287.29 218.401,286.29 217.5,285.5C 217.5,284.167 217.5,282.833 217.5,281.5C 218.489,276.025 218.822,270.358 218.5,264.5 Z"/></g>
<g><path style="opacity:1" fill="#4b4c4b" d="M 233.5,229.5 C 243.955,233.882 253.955,239.215 263.5,245.5C 264.659,247.377 266.326,247.877 268.5,247C 277.312,242.093 285.978,236.927 294.5,231.5C 295.833,234.833 298.167,237.167 301.5,238.5C 292.953,243.6 284.62,248.934 276.5,254.5C 274.596,254.738 273.262,255.738 272.5,257.5C 270.821,257.285 269.821,257.952 269.5,259.5C 266.57,258.701 263.57,258.368 260.5,258.5C 261.514,293.195 261.514,327.861 260.5,362.5C 259.235,363.514 258.569,365.014 258.5,367C 259.299,373.988 259.965,380.988 260.5,388C 260.612,399.472 260.279,410.972 259.5,422.5C 259.408,425.725 260.408,428.559 262.5,431C 261.851,432.69 261.851,434.523 262.5,436.5C 260.614,435.639 258.78,434.639 257,433.5C 256.003,421.736 256.503,410.069 258.5,398.5C 257.799,377.53 257.132,356.53 256.5,335.5C 256.927,331.956 257.594,328.456 258.5,325C 257.824,311.503 257.157,298.003 256.5,284.5C 258.278,280.062 257.612,276.062 254.5,272.5C 255.325,271.614 256.325,271.281 257.5,271.5C 257.66,268.116 257.327,264.783 256.5,261.5C 256.977,258.741 258.644,257.075 261.5,256.5C 260.975,255.808 260.308,255.308 259.5,255C 262.177,253.627 263.344,251.46 263,248.5C 252.212,243.526 242.379,237.192 233.5,229.5 Z"/></g>
<g><path style="opacity:0.478" fill="#9b9b9b" d="M 314.5,285.5 C 314.5,288.5 314.5,291.5 314.5,294.5C 314.5,296.167 314.5,297.833 314.5,299.5C 313.833,301.5 313.167,303.5 312.5,305.5C 312.735,298.646 313.402,291.979 314.5,285.5 Z"/></g>
<g><path style="opacity:0.012" fill="#d9dada" d="M 217.5,285.5 C 218.401,286.29 219.068,287.29 219.5,288.5C 220.267,298.815 220.601,309.148 220.5,319.5C 220.167,319.5 219.833,319.5 219.5,319.5C 218.729,308.176 218.062,296.842 217.5,285.5 Z"/></g>
<g><path style="opacity:1" fill="#2d2e2d" d="M 273.5,316.5 C 271.901,316.232 270.568,316.566 269.5,317.5C 267.894,318.78 266.894,318.28 266.5,316C 269.38,311.193 271.714,311.359 273.5,316.5 Z"/></g>
<g><path style="opacity:1" fill="#9fa09f" d="M 273.5,316.5 C 275.957,318.001 275.957,319.668 273.5,321.5C 270.5,321.833 269.167,320.5 269.5,317.5C 270.568,316.566 271.901,316.232 273.5,316.5 Z"/></g>
<g><path style="opacity:0.014" fill="#f4f4f4" d="M 219.5,319.5 C 219.833,319.5 220.167,319.5 220.5,319.5C 221,333.495 221.333,347.495 221.5,361.5C 220.176,347.686 219.509,333.686 219.5,319.5 Z"/></g>
<g><path style="opacity:0.018" fill="#eaeaea" d="M 314.5,299.5 C 314.039,314.354 313.039,329.021 311.5,343.5C 312.015,330.839 312.348,318.173 312.5,305.5C 313.167,303.5 313.833,301.5 314.5,299.5 Z"/></g>
<g><path style="opacity:1" fill="#5d5f5e" d="M 260.5,362.5 C 260.5,364.167 260.5,365.833 260.5,367.5C 264.274,367.484 265.274,369.15 263.5,372.5C 266.326,377.518 268.992,382.684 271.5,388C 272.051,389.958 272.385,391.958 272.5,394C 272.765,405.207 272.432,416.54 271.5,428C 271.396,430.145 272.063,431.979 273.5,433.5C 272.653,434.845 271.487,435.845 270,436.5C 268.734,440.395 268.234,444.395 268.5,448.5C 267.432,449.434 266.099,449.768 264.5,449.5C 265.036,446.302 264.369,443.635 262.5,441.5C 261.508,441.672 260.842,441.338 260.5,440.5C 260.5,440.167 260.5,439.833 260.5,439.5C 262.048,439.179 262.715,438.179 262.5,436.5C 261.851,434.523 261.851,432.69 262.5,431C 260.408,428.559 259.408,425.725 259.5,422.5C 260.279,410.972 260.612,399.472 260.5,388C 259.965,380.988 259.299,373.988 258.5,367C 258.569,365.014 259.235,363.514 260.5,362.5 Z"/></g>
<g><path style="opacity:0.077" fill="#ececec" d="M 221.5,367.5 C 222.33,376.324 222.83,385.324 223,394.5C 223.561,397.279 224.394,399.946 225.5,402.5C 223.306,400.779 222.139,398.445 222,395.5C 221.5,386.173 221.334,376.839 221.5,367.5 Z"/></g>
<g><path style="opacity:0.066" fill="#eaeaea" d="M 311.5,343.5 C 310.939,363.509 310.106,383.509 309,403.5C 306.984,408.014 303.817,411.347 299.5,413.5C 302.883,410.28 305.716,406.614 308,402.5C 308.65,382.646 309.817,362.979 311.5,343.5 Z"/></g>
<g><path style="opacity:0.161" fill="#cccdcd" d="M 225.5,402.5 C 227.98,406.732 230.313,411.065 232.5,415.5C 230.983,415.489 229.816,414.823 229,413.5C 228.887,411.026 227.887,409.026 226,407.5C 225.506,405.866 225.34,404.199 225.5,402.5 Z"/></g>
<g><path style="opacity:0.012" fill="#e4e4e4" d="M 299.5,413.5 C 298.415,415.587 296.749,416.92 294.5,417.5C 295.585,415.413 297.251,414.08 299.5,413.5 Z"/></g>
<g><path style="opacity:0.435" fill="#b5b5b5" d="M 234.5,416.5 C 236.404,416.738 237.738,417.738 238.5,419.5C 236.596,419.262 235.262,418.262 234.5,416.5 Z"/></g>
<g><path style="opacity:0.308" fill="#c4c5c5" d="M 240.5,420.5 C 242.164,421.949 242.998,423.949 243,426.5C 245.396,429.067 247.896,431.4 250.5,433.5C 244.13,431.467 240.796,427.134 240.5,420.5 Z"/></g>
<g><path style="opacity:0.075" fill="#dbdbdb" d="M 290.5,421.5 C 288.761,424.243 286.427,426.243 283.5,427.5C 285.239,424.757 287.573,422.757 290.5,421.5 Z"/></g>
<g><path style="opacity:0.204" fill="#d6d6d6" d="M 280.5,430.5 C 279.341,432.25 277.674,433.25 275.5,433.5C 275.5,433.167 275.5,432.833 275.5,432.5C 277.05,431.559 278.716,430.893 280.5,430.5 Z"/></g>
<g><path style="opacity:1" fill="#8e908f" d="M 263.5,431.5 C 266.797,431.632 268.463,433.298 268.5,436.5C 264.828,436.817 263.162,435.151 263.5,431.5 Z"/></g>
<g><path style="opacity:0.373" fill="#c3c3c3" d="M 250.5,433.5 C 252.404,433.738 253.738,434.738 254.5,436.5C 252.596,436.262 251.262,435.262 250.5,433.5 Z"/></g>
<g><path style="opacity:0.141" fill="#dadbdb" d="M 254.5,436.5 C 256.784,436.975 258.784,437.975 260.5,439.5C 260.5,439.833 260.5,440.167 260.5,440.5C 258.147,439.66 256.147,438.326 254.5,436.5 Z"/></g>
<g><path style="opacity:0.12" fill="#e8e8e8" d="M 262.5,441.5 C 264.369,443.635 265.036,446.302 264.5,449.5C 263.745,446.947 263.078,444.28 262.5,441.5 Z"/></g>
<g><path style="opacity:0.09" fill="#d8d8d8" d="M 272.5,436.5 C 272.854,440.637 272.354,444.637 271,448.5C 269.005,451.806 266.838,452.139 264.5,449.5C 266.099,449.768 267.432,449.434 268.5,448.5C 269.79,447.942 270.623,446.942 271,445.5C 271.181,442.305 271.681,439.305 272.5,436.5 Z"/></g>
</svg>
