<?xml version="1.0" encoding="UTF-8"?>
<!DOCTYPE svg PUBLIC "-//W3C//DTD SVG 1.1//EN" "http://www.w3.org/Graphics/SVG/1.1/DTD/svg11.dtd">
<svg xmlns="http://www.w3.org/2000/svg" version="1.1" width="564px" height="516px" style="shape-rendering:geometricPrecision; text-rendering:geometricPrecision; image-rendering:optimizeQuality; fill-rule:evenodd; clip-rule:evenodd" xmlns:xlink="http://www.w3.org/1999/xlink">
<g><path style="opacity:1" fill="#fefefe" d="M -0.5,-0.5 C 187.5,-0.5 375.5,-0.5 563.5,-0.5C 563.5,171.5 563.5,343.5 563.5,515.5C 375.5,515.5 187.5,515.5 -0.5,515.5C -0.5,343.5 -0.5,171.5 -0.5,-0.5 Z"/></g>
<g><path style="opacity:1" fill="#323433" d="M 111.5,27.5 C 114.215,29.0719 117.215,30.0719 120.5,30.5C 121.791,30.2627 122.791,30.596 123.5,31.5C 123.973,32.9063 124.973,33.573 126.5,33.5C 126.719,34.675 126.386,35.675 125.5,36.5C 121.192,38.3206 116.859,39.6539 112.5,40.5C 111.417,40.5394 110.417,40.8728 109.5,41.5C 108.511,45.1073 108.177,48.774 108.5,52.5C 107.542,52.9528 106.708,53.6195 106,54.5C 105.61,57.1042 104.776,59.4375 103.5,61.5C 103.67,60.1779 103.337,59.0113 102.5,58C 100.833,57.6667 99.1667,57.3333 97.5,57C 95.1274,55.2423 95.1274,53.409 97.5,51.5C 97.5,52.5 97.5,53.5 97.5,54.5C 100.119,54.7683 102.619,54.435 105,53.5C 105.63,51.0966 104.797,49.2633 102.5,48C 101.423,47.5304 100.423,47.6971 99.5,48.5C 99.2204,44.7747 97.2204,43.608 93.5,45C 90.9648,45.9282 89.9648,47.7615 90.5,50.5C 89.8826,50.3893 89.3826,50.056 89,49.5C 88.5006,44.1771 88.334,38.8437 88.5,33.5C 89.1667,32.1667 89.8333,30.8333 90.5,29.5C 92.6976,29.1249 94.6976,28.4582 96.5,27.5C 101.4,26.2001 106.4,26.2001 111.5,27.5 Z"/></g>
<g><path style="opacity:1" fill="#a2a2a2" d="M 111.5,27.5 C 114.916,27.5275 117.916,28.5275 120.5,30.5C 117.215,30.0719 114.215,29.0719 111.5,27.5 Z"/></g>
<g><path style="opacity:1" fill="#909190" d="M 96.5,27.5 C 94.6976,28.4582 92.6976,29.1249 90.5,29.5C 91.9899,27.7202 93.9899,27.0535 96.5,27.5 Z"/></g>
<g><path style="opacity:1" fill="#777777" d="M 90.5,29.5 C 89.8333,30.8333 89.1667,32.1667 88.5,33.5C 88.1667,33.5 87.8333,33.5 87.5,33.5C 87.0882,31.0274 88.0882,29.6941 90.5,29.5 Z"/></g>
<g><path style="opacity:1" fill="#9a9b9a" d="M 123.5,31.5 C 125.027,31.427 126.027,32.0937 126.5,33.5C 124.973,33.573 123.973,32.9063 123.5,31.5 Z"/></g>
<g><path style="opacity:1" fill="#8e908f" d="M 126.5,33.5 C 127.167,33.8333 127.833,34.1667 128.5,34.5C 128.5,35.8333 128.5,37.1667 128.5,38.5C 127.5,38.5 126.5,38.5 125.5,38.5C 124.463,43.5373 124.463,48.5373 125.5,53.5C 123.983,53.4894 122.816,52.8228 122,51.5C 121.457,48.1322 121.624,44.7989 122.5,41.5C 121.167,41.5 119.833,41.5 118.5,41.5C 116.735,40.5386 114.735,40.2053 112.5,40.5C 116.859,39.6539 121.192,38.3206 125.5,36.5C 126.386,35.675 126.719,34.675 126.5,33.5 Z"/></g>
<g><path style="opacity:1" fill="#7d7e7f" d="M 116.5,41.5 C 117.167,41.5 117.833,41.5 118.5,41.5C 119.833,41.5 121.167,41.5 122.5,41.5C 121.624,44.7989 121.457,48.1322 122,51.5C 122.816,52.8228 123.983,53.4894 125.5,53.5C 125.299,56.7281 125.633,59.8948 126.5,63C 124.854,65.595 124.187,68.4284 124.5,71.5C 125.5,71.5 126.5,71.5 127.5,71.5C 126.5,72.1667 125.5,72.8333 124.5,73.5C 121.933,74.475 119.267,75.1417 116.5,75.5C 114.517,75.8432 113.183,75.1765 112.5,73.5C 114.194,68.0573 115.528,62.3906 116.5,56.5C 116.148,51.5921 116.148,46.5921 116.5,41.5 Z"/></g>
<g><path style="opacity:1" fill="#212222" d="M 99.5,48.5 C 99.0679,49.7095 98.4013,50.7095 97.5,51.5C 95.1274,53.409 95.1274,55.2423 97.5,57C 99.1667,57.3333 100.833,57.6667 102.5,58C 103.337,59.0113 103.67,60.1779 103.5,61.5C 102.475,62.3739 101.808,63.5405 101.5,65C 103.698,66.6021 105.698,68.4354 107.5,70.5C 105.604,71.4656 103.604,71.7989 101.5,71.5C 100.833,71.5 100.167,71.5 99.5,71.5C 98.1667,71.1667 96.8333,70.8333 95.5,70.5C 86.0748,66.0456 86.4082,64.3789 96.5,65.5C 96.8333,65 97.1667,64.5 97.5,64C 96.392,61.8876 94.892,60.0542 93,58.5C 92.2177,55.6898 91.3844,53.0232 90.5,50.5C 89.9648,47.7615 90.9648,45.9282 93.5,45C 97.2204,43.608 99.2204,44.7747 99.5,48.5 Z"/></g>
<g><path style="opacity:1" fill="#4f4f4f" d="M 97.5,51.5 C 98.4013,50.7095 99.0679,49.7095 99.5,48.5C 100.423,47.6971 101.423,47.5304 102.5,48C 104.797,49.2633 105.63,51.0966 105,53.5C 102.619,54.435 100.119,54.7683 97.5,54.5C 97.5,53.5 97.5,52.5 97.5,51.5 Z"/></g>
<g><path style="opacity:1" fill="#a6a8a7" d="M 112.5,40.5 C 114.735,40.2053 116.735,40.5386 118.5,41.5C 117.833,41.5 117.167,41.5 116.5,41.5C 115.29,41.9321 114.29,42.5987 113.5,43.5C 112.94,50.2289 111.94,56.8955 110.5,63.5C 109.883,63.3893 109.383,63.056 109,62.5C 108.502,59.1832 108.335,55.8499 108.5,52.5C 108.177,48.774 108.511,45.1073 109.5,41.5C 110.417,40.8728 111.417,40.5394 112.5,40.5 Z"/></g>
<g><path style="opacity:1" fill="#505050" d="M 108.5,52.5 C 108.335,55.8499 108.502,59.1832 109,62.5C 109.383,63.056 109.883,63.3893 110.5,63.5C 111.564,70.1431 108.898,73.1431 102.5,72.5C 101.833,72.5 101.5,72.1667 101.5,71.5C 103.604,71.7989 105.604,71.4656 107.5,70.5C 105.698,68.4354 103.698,66.6021 101.5,65C 101.808,63.5405 102.475,62.3739 103.5,61.5C 104.776,59.4375 105.61,57.1042 106,54.5C 106.708,53.6195 107.542,52.9528 108.5,52.5 Z"/></g>
<g><path style="opacity:1" fill="#9c9c9c" d="M 128.5,47.5 C 128.5,56.1667 128.5,64.8333 128.5,73.5C 127.167,73.5 125.833,73.5 124.5,73.5C 125.5,72.8333 126.5,72.1667 127.5,71.5C 127.174,63.3159 127.508,55.3159 128.5,47.5 Z"/></g>
<g><path style="opacity:1" fill="#8d8e8e" d="M 116.5,41.5 C 116.148,46.5921 116.148,51.5921 116.5,56.5C 115.528,62.3906 114.194,68.0573 112.5,73.5C 112.908,63.5955 113.241,53.5955 113.5,43.5C 114.29,42.5987 115.29,41.9321 116.5,41.5 Z"/></g>
<g><path style="opacity:1" fill="#6e6f6f" d="M 128.5,38.5 C 128.5,41.5 128.5,44.5 128.5,47.5C 127.508,55.3159 127.174,63.3159 127.5,71.5C 126.5,71.5 125.5,71.5 124.5,71.5C 124.187,68.4284 124.854,65.595 126.5,63C 125.633,59.8948 125.299,56.7281 125.5,53.5C 124.463,48.5373 124.463,43.5373 125.5,38.5C 126.5,38.5 127.5,38.5 128.5,38.5 Z"/></g>
<g><path style="opacity:1" fill="#747474" d="M 87.5,33.5 C 87.1675,46.5171 87.5009,59.5171 88.5,72.5C 89.8333,73.1667 91.1667,73.8333 92.5,74.5C 93.0568,72.6684 94.0568,71.3351 95.5,70.5C 96.8333,70.8333 98.1667,71.1667 99.5,71.5C 98.7659,72.7079 98.4326,74.0413 98.5,75.5C 97.5,75.5 96.5,75.5 95.5,75.5C 92.1625,75.9347 89.1625,75.2681 86.5,73.5C 86.1711,59.9895 86.5044,46.6562 87.5,33.5 Z"/></g>
<g><path style="opacity:1" fill="#9b9c9c" d="M 113.5,43.5 C 113.241,53.5955 112.908,63.5955 112.5,73.5C 113.183,75.1765 114.517,75.8432 116.5,75.5C 109.5,76.8333 102.5,76.8333 95.5,75.5C 96.5,75.5 97.5,75.5 98.5,75.5C 99.8333,75.5 101.167,75.5 102.5,75.5C 102.5,74.5 102.5,73.5 102.5,72.5C 108.898,73.1431 111.564,70.1431 110.5,63.5C 111.94,56.8955 112.94,50.2289 113.5,43.5 Z"/></g>
<g><path style="opacity:1" fill="#424342" d="M 87.5,33.5 C 87.8333,33.5 88.1667,33.5 88.5,33.5C 88.334,38.8437 88.5006,44.1771 89,49.5C 89.3826,50.056 89.8826,50.3893 90.5,50.5C 91.3844,53.0232 92.2177,55.6898 93,58.5C 94.892,60.0542 96.392,61.8876 97.5,64C 97.1667,64.5 96.8333,65 96.5,65.5C 86.4082,64.3789 86.0748,66.0456 95.5,70.5C 94.0568,71.3351 93.0568,72.6684 92.5,74.5C 91.1667,73.8333 89.8333,73.1667 88.5,72.5C 87.5009,59.5171 87.1675,46.5171 87.5,33.5 Z"/></g>
<g><path style="opacity:1" fill="#838383" d="M 99.5,71.5 C 100.167,71.5 100.833,71.5 101.5,71.5C 101.5,72.1667 101.833,72.5 102.5,72.5C 102.5,73.5 102.5,74.5 102.5,75.5C 101.167,75.5 99.8333,75.5 98.5,75.5C 98.4326,74.0413 98.7659,72.7079 99.5,71.5 Z"/></g>
<g><path style="opacity:1" fill="#dcdcdc" d="M 128.5,34.5 C 129.166,41.1583 129.5,47.9916 129.5,55C 129.702,64.5765 129.035,74.0765 127.5,83.5C 127.516,185.112 127.516,286.778 127.5,388.5C 113.5,388.5 99.5,388.5 85.5,388.5C 85.1908,283.491 85.5242,178.491 86.5,73.5C 89.1625,75.2681 92.1625,75.9347 95.5,75.5C 102.5,76.8333 109.5,76.8333 116.5,75.5C 119.267,75.1417 121.933,74.475 124.5,73.5C 125.833,73.5 127.167,73.5 128.5,73.5C 128.5,64.8333 128.5,56.1667 128.5,47.5C 128.5,44.5 128.5,41.5 128.5,38.5C 128.5,37.1667 128.5,35.8333 128.5,34.5 Z"/></g>
</svg>
