<?xml version="1.0" encoding="UTF-8"?>
<!DOCTYPE svg PUBLIC "-//W3C//DTD SVG 1.1//EN" "http://www.w3.org/Graphics/SVG/1.1/DTD/svg11.dtd">
<svg xmlns="http://www.w3.org/2000/svg" version="1.1" width="564px" height="516px" style="shape-rendering:geometricPrecision; text-rendering:geometricPrecision; image-rendering:optimizeQuality; fill-rule:evenodd; clip-rule:evenodd" xmlns:xlink="http://www.w3.org/1999/xlink">
<g><path style="opacity:0.871" fill="#646565" d="M 109.5,25.5 C 110.167,26.1667 110.833,26.8333 111.5,27.5C 105.366,25.9502 99.3656,26.2836 93.5,28.5C 93.5,27.8333 93.5,27.1667 93.5,26.5C 98.7401,25.5509 104.073,25.2175 109.5,25.5 Z"/></g>
<g><path style="opacity:1" fill="#323433" d="M 111.5,27.5 C 116.841,28.7232 121.841,30.7232 126.5,33.5C 126.267,35.0618 125.6,36.3951 124.5,37.5C 119.406,38.5148 114.406,39.8481 109.5,41.5C 108.511,45.1073 108.177,48.774 108.5,52.5C 107.542,52.9528 106.708,53.6195 106,54.5C 105.61,57.1042 104.776,59.4375 103.5,61.5C 103.67,60.1779 103.337,59.0113 102.5,58C 100.833,57.6667 99.1667,57.3333 97.5,57C 95.1274,55.2423 95.1274,53.409 97.5,51.5C 97.5,52.5 97.5,53.5 97.5,54.5C 100.119,54.7683 102.619,54.435 105,53.5C 105.63,51.0966 104.797,49.2633 102.5,48C 101.423,47.5304 100.423,47.6971 99.5,48.5C 99.67,47.1779 99.3366,46.0113 98.5,45C 95.7431,44.218 93.2431,44.718 91,46.5C 90.8819,50.5836 91.5485,54.5836 93,58.5C 94.892,60.0542 96.392,61.8876 97.5,64C 97.1667,64.5 96.8333,65 96.5,65.5C 93.5788,64.5934 90.5788,64.2601 87.5,64.5C 87.5,54.1667 87.5,43.8333 87.5,33.5C 88.2678,30.4384 90.2678,28.7717 93.5,28.5C 99.3656,26.2836 105.366,25.9502 111.5,27.5 Z"/></g>
<g><path style="opacity:0.357" fill="#aaaaaa" d="M 93.5,26.5 C 93.5,27.1667 93.5,27.8333 93.5,28.5C 90.2678,28.7717 88.2678,30.4384 87.5,33.5C 86.6618,33.1583 86.3284,32.4916 86.5,31.5C 87.4608,28.1653 89.7941,26.4986 93.5,26.5 Z"/></g>
<g><path style="opacity:0.294" fill="#a1a2a2" d="M 109.5,25.5 C 114.96,26.4858 120.293,27.9858 125.5,30C 127.635,30.8763 128.969,32.3763 129.5,34.5C 128.391,34.4431 127.391,34.1098 126.5,33.5C 121.841,30.7232 116.841,28.7232 111.5,27.5C 110.833,26.8333 110.167,26.1667 109.5,25.5 Z"/></g>
<g><path style="opacity:0.302" fill="#6f706f" d="M 126.5,33.5 C 127.391,34.1098 128.391,34.4431 129.5,34.5C 129.5,38.8333 129.5,43.1667 129.5,47.5C 128.178,47.67 127.011,47.3366 126,46.5C 125.223,43.5706 125.39,40.7372 126.5,38C 125.906,37.5357 125.239,37.369 124.5,37.5C 125.6,36.3951 126.267,35.0618 126.5,33.5 Z"/></g>
<g><path style="opacity:1" fill="#7a7b7c" d="M 129.5,49.5 C 129.5,56.1667 129.5,62.8333 129.5,69.5C 127.952,69.8212 127.285,70.8212 127.5,72.5C 124.022,73.9543 120.355,74.9543 116.5,75.5C 115.022,75.762 113.689,75.4287 112.5,74.5C 114.109,68.5793 115.442,62.5793 116.5,56.5C 116.148,51.5921 116.148,46.5921 116.5,41.5C 118.5,41.5 120.5,41.5 122.5,41.5C 121.624,44.7989 121.457,48.1322 122,51.5C 123.11,53.0368 124.61,53.7035 126.5,53.5C 126.34,51.8008 126.506,50.1341 127,48.5C 127.671,49.2524 128.504,49.5858 129.5,49.5 Z"/></g>
<g><path style="opacity:1" fill="#212222" d="M 99.5,48.5 C 99.0679,49.7095 98.4013,50.7095 97.5,51.5C 95.1274,53.409 95.1274,55.2423 97.5,57C 99.1667,57.3333 100.833,57.6667 102.5,58C 103.337,59.0113 103.67,60.1779 103.5,61.5C 102.475,62.3739 101.808,63.5405 101.5,65C 103.698,66.6021 105.698,68.4354 107.5,70.5C 105.604,71.4656 103.604,71.7989 101.5,71.5C 100.833,71.5 100.167,71.5 99.5,71.5C 94.4868,70.6343 90.4868,68.301 87.5,64.5C 90.5788,64.2601 93.5788,64.5934 96.5,65.5C 96.8333,65 97.1667,64.5 97.5,64C 96.392,61.8876 94.892,60.0542 93,58.5C 91.5485,54.5836 90.8819,50.5836 91,46.5C 93.2431,44.718 95.7431,44.218 98.5,45C 99.3366,46.0113 99.67,47.1779 99.5,48.5 Z"/></g>
<g><path style="opacity:1" fill="#4f4f4f" d="M 97.5,51.5 C 98.4013,50.7095 99.0679,49.7095 99.5,48.5C 100.423,47.6971 101.423,47.5304 102.5,48C 104.797,49.2633 105.63,51.0966 105,53.5C 102.619,54.435 100.119,54.7683 97.5,54.5C 97.5,53.5 97.5,52.5 97.5,51.5 Z"/></g>
<g><path style="opacity:0.725" fill="#696a69" d="M 86.5,31.5 C 86.3284,32.4916 86.6618,33.1583 87.5,33.5C 87.5,43.8333 87.5,54.1667 87.5,64.5C 86.3709,66.6282 86.2042,68.9615 87,71.5C 89.7383,73.2888 92.5716,74.6221 95.5,75.5C 91.8849,75.845 88.5516,75.1783 85.5,73.5C 85.1709,59.3234 85.5042,45.3234 86.5,31.5 Z"/></g>
<g><path style="opacity:1" fill="#505050" d="M 108.5,52.5 C 108.187,56.0419 108.521,59.3752 109.5,62.5C 109.5,63.1667 109.833,63.5 110.5,63.5C 111.603,71.4161 108.603,74.0828 101.5,71.5C 103.604,71.7989 105.604,71.4656 107.5,70.5C 105.698,68.4354 103.698,66.6021 101.5,65C 101.808,63.5405 102.475,62.3739 103.5,61.5C 104.776,59.4375 105.61,57.1042 106,54.5C 106.708,53.6195 107.542,52.9528 108.5,52.5 Z"/></g>
<g><path style="opacity:1" fill="#aeb0af" d="M 110.5,63.5 C 109.833,63.5 109.5,63.1667 109.5,62.5C 109.17,55.8002 109.503,49.1335 110.5,42.5C 111.609,41.4104 112.609,41.4104 113.5,42.5C 112.985,49.6931 111.985,56.6931 110.5,63.5 Z"/></g>
<g><path style="opacity:1" fill="#919392" d="M 124.5,37.5 C 125.239,37.369 125.906,37.5357 126.5,38C 125.39,40.7372 125.223,43.5706 126,46.5C 127.011,47.3366 128.178,47.67 129.5,47.5C 129.5,48.1667 129.5,48.8333 129.5,49.5C 128.504,49.5858 127.671,49.2524 127,48.5C 126.506,50.1341 126.34,51.8008 126.5,53.5C 124.61,53.7035 123.11,53.0368 122,51.5C 121.457,48.1322 121.624,44.7989 122.5,41.5C 120.5,41.5 118.5,41.5 116.5,41.5C 116.148,46.5921 116.148,51.5921 116.5,56.5C 115.442,62.5793 114.109,68.5793 112.5,74.5C 113.689,75.4287 115.022,75.762 116.5,75.5C 109.5,76.8333 102.5,76.8333 95.5,75.5C 96.5,75.5 97.5,75.5 98.5,75.5C 98.4326,74.0413 98.7659,72.7079 99.5,71.5C 100.167,71.5 100.833,71.5 101.5,71.5C 108.603,74.0828 111.603,71.4161 110.5,63.5C 111.985,56.6931 112.985,49.6931 113.5,42.5C 112.609,41.4104 111.609,41.4104 110.5,42.5C 109.503,49.1335 109.17,55.8002 109.5,62.5C 108.521,59.3752 108.187,56.0419 108.5,52.5C 108.177,48.774 108.511,45.1073 109.5,41.5C 114.406,39.8481 119.406,38.5148 124.5,37.5 Z"/></g>
<g><path style="opacity:1" fill="#494949" d="M 87.5,64.5 C 90.4868,68.301 94.4868,70.6343 99.5,71.5C 98.7659,72.7079 98.4326,74.0413 98.5,75.5C 97.5,75.5 96.5,75.5 95.5,75.5C 92.5716,74.6221 89.7383,73.2888 87,71.5C 86.2042,68.9615 86.3709,66.6282 87.5,64.5 Z"/></g>
<g><path style="opacity:0.973" fill="#dcdcdc" d="M 129.5,69.5 C 128.861,176.063 128.194,282.563 127.5,389C 113.258,389.823 99.0918,389.656 85,388.5C 84.3333,291.5 84.3333,194.5 85,97.5C 86.0695,89.4673 86.2362,81.4673 85.5,73.5C 88.5516,75.1783 91.8849,75.845 95.5,75.5C 102.5,76.8333 109.5,76.8333 116.5,75.5C 120.355,74.9543 124.022,73.9543 127.5,72.5C 127.285,70.8212 127.952,69.8212 129.5,69.5 Z"/></g>
</svg>
